<?xml version="1.0" standalone="no"?>
<!DOCTYPE svg PUBLIC "-//W3C//DTD SVG 20010904//EN"
 "http://www.w3.org/TR/2001/REC-SVG-20010904/DTD/svg10.dtd">
<svg version="1.0" xmlns="http://www.w3.org/2000/svg"
 width="512.000000pt" height="512.000000pt" viewBox="0 0 512.000000 512.000000"
 preserveAspectRatio="xMidYMid meet">
<metadata>
Created by potrace 1.14, written by Peter Selinger 2001-2017
</metadata>
<g transform="translate(0.000000,512.000000) scale(0.100000,-0.100000)"
fill="#000000" stroke="none">
<path d="M3733 5045 c0 -8 4 -12 9 -9 5 3 6 10 3 15 -9 13 -12 11 -12 -6z"/>
<path d="M2890 5019 c0 -5 5 -7 10 -4 6 3 10 8 10 11 0 2 -4 4 -10 4 -5 0 -10
-5 -10 -11z"/>
<path d="M2932 5007 c-4 -14 -7 -16 -13 -5 -6 9 -9 9 -9 1 0 -6 -9 -11 -20
-10 -11 1 -20 5 -20 9 0 4 -5 8 -10 8 -15 0 11 -37 35 -50 19 -10 19 -10 0 -5
-36 11 -40 10 -39 -10 1 -31 11 -84 26 -150 8 -33 14 -69 14 -79 -1 -14 -34
-42 -107 -90 -197 -133 -318 -241 -434 -391 -99 -129 -192 -291 -239 -416
l-18 -47 -964 2 c-538 0 -964 -3 -964 -8 0 -4 -9 -6 -20 -3 -11 3 -18 1 -14
-4 3 -5 1 -9 -4 -9 -5 0 -23 -13 -40 -29 -16 -16 -33 -28 -36 -25 -3 2 -4 1
-1 -2 2 -4 -2 -16 -10 -28 -8 -11 -15 -28 -15 -38 0 -10 -5 -18 -11 -18 -5 0
-8 -4 -5 -8 5 -9 18 -178 20 -279 0 -39 4 -69 9 -66 4 2 7 0 7 -6 0 -5 -6 -12
-12 -14 -10 -4 -10 -6 0 -6 6 -1 12 -10 12 -21 0 -11 -6 -20 -12 -20 -10 0
-10 -2 -1 -8 7 -4 12 -16 12 -27 2 -62 10 -176 14 -182 3 -5 4 -45 3 -90 0
-44 2 -79 6 -76 5 2 8 -3 8 -12 0 -10 -5 -13 -12 -9 -10 6 -10 4 -2 -7 6 -8
11 -27 10 -44 -1 -16 2 -38 6 -47 5 -9 4 -19 -2 -23 -6 -3 -5 -15 2 -31 10
-20 9 -27 -3 -35 -8 -5 -9 -9 -3 -9 7 0 12 -15 12 -32 0 -18 3 -91 7 -163 4
-71 9 -173 10 -225 2 -52 6 -130 9 -173 4 -56 2 -76 -6 -71 -8 5 -8 3 -2 -7 5
-8 9 -51 10 -97 1 -45 4 -85 7 -89 13 -12 8 -34 -5 -27 -10 6 -10 5 -1 -7 14
-17 15 -89 1 -89 -4 0 -8 -5 -8 -11 0 -5 4 -8 9 -5 5 4 8 -33 7 -84 0 -51 3
-90 8 -90 6 0 5 -5 -2 -12 -7 -7 -8 -17 -1 -30 7 -13 6 -18 -3 -18 -10 0 -10
-2 -1 -8 8 -5 11 -72 10 -245 -1 -130 1 -237 4 -237 4 0 7 -30 8 -67 1 -72 16
-133 32 -133 6 0 8 -4 4 -10 -3 -5 3 -18 15 -30 11 -11 20 -22 20 -25 0 -3 0
-7 0 -10 0 -3 9 -1 21 5 24 14 40 4 19 -11 -12 -9 -12 -10 2 -5 11 3 18 0 18
-7 0 -7 3 -8 8 -2 8 11 52 20 52 10 0 -3 -10 -10 -22 -15 -17 -6 -18 -9 -6 -9
9 -1 19 3 23 9 3 5 12 7 19 4 8 -3 17 0 21 5 3 6 10 9 15 6 5 -3 11 -1 15 4 3
6 -3 8 -15 6 -11 -2 -20 1 -20 6 0 6 -5 7 -11 3 -8 -4 -7 -9 2 -16 11 -8 11
-9 -1 -5 -8 2 -14 12 -12 21 3 16 1 16 -25 -1 -15 -10 -24 -12 -20 -5 5 6 4
12 -2 12 -6 0 -11 -6 -11 -12 0 -9 -3 -8 -10 2 -13 21 5 37 24 21 8 -7 21 -9
28 -5 16 10 48 13 43 3 -8 -12 22 -18 34 -6 17 17 41 17 34 1 -4 -10 0 -12 11
-8 9 3 13 10 10 15 -3 5 2 6 10 3 9 -3 16 -10 16 -16 0 -5 -4 -6 -10 -3 -5 3
-10 2 -10 -3 0 -5 -7 -9 -15 -10 -8 -1 -21 -3 -29 -4 -15 -1 -19 -45 -5 -54 5
-3 6 3 2 12 -4 12 -3 15 5 10 8 -5 10 -2 6 8 -3 9 -1 16 5 16 6 0 11 -6 11
-12 1 -8 6 -6 14 5 7 9 20 17 28 17 9 0 21 7 28 15 7 9 19 14 25 11 7 -2 18 1
25 7 9 9 11 9 7 1 -4 -7 0 -14 8 -18 8 -3 15 0 15 7 0 8 3 7 9 -2 9 -14 61
-25 60 -13 -1 4 -1 14 0 22 1 12 3 12 12 -2 5 -10 17 -15 27 -12 13 5 14 4 3
-4 -9 -7 -10 -12 -2 -16 6 -4 11 -13 11 -19 -1 -8 -5 -6 -13 3 -12 16 -37 21
-37 8 0 -31 1 -32 9 -19 8 12 12 12 24 2 13 -10 17 -9 26 6 9 17 11 16 20 -7
9 -23 12 -18 11 18 0 4 -9 6 -20 6 -15 -1 -17 2 -10 16 11 21 47 32 47 15 0
-7 -8 -10 -19 -7 -10 2 -18 0 -18 -5 0 -5 16 -10 35 -10 21 0 35 5 35 13 0 6
7 15 16 18 26 10 29 7 9 -8 -18 -13 -18 -15 -2 -39 11 -16 24 -24 41 -23 16 1
21 5 15 12 -5 6 -8 13 -6 15 1 2 -3 -1 -9 -8 -16 -18 -24 -16 -18 5 4 13 3 14
-4 4 -7 -11 -10 -11 -15 2 -7 18 8 32 18 16 3 -5 11 -10 17 -10 6 0 5 7 -3 18
-7 9 -9 14 -5 10 5 -4 16 -2 25 5 14 10 14 10 4 -4 -7 -9 -10 -19 -6 -22 9
-10 25 -9 19 1 -7 12 12 38 21 28 4 -5 2 -11 -5 -13 -6 -3 -10 -9 -6 -14 3 -5
14 -3 26 5 11 8 27 12 34 9 22 -8 17 -22 -6 -18 -13 3 -18 0 -14 -7 4 -7 2 -8
-5 -4 -6 4 -19 2 -28 -6 -14 -11 -16 -11 -8 1 5 9 4 12 -3 7 -6 -4 -8 -14 -5
-23 4 -11 8 -13 11 -5 2 7 8 12 13 12 6 0 7 -4 4 -10 -11 -17 7 -11 21 7 7 10
20 18 30 18 9 0 18 8 20 18 1 9 -3 17 -9 17 -5 0 -8 3 -5 6 4 3 19 -2 35 -11
24 -13 25 -15 4 -9 -16 4 -21 3 -17 -5 4 -6 14 -11 22 -11 8 0 12 -5 9 -10 -5
-8 -11 -8 -20 0 -17 14 -27 -11 -13 -31 8 -11 9 -10 4 3 -3 10 -1 18 4 18 6 0
10 -6 10 -12 0 -7 5 -5 11 5 5 9 15 17 20 17 6 0 8 -4 4 -9 -3 -5 -1 -12 5
-16 6 -4 8 -11 5 -16 -4 -5 -1 -9 4 -9 14 0 14 13 -1 28 -9 9 -9 12 -1 12 7 0
15 -5 18 -10 5 -8 11 -7 20 0 8 7 18 9 23 6 6 -3 15 1 21 8 14 17 1 28 -19 16
-9 -5 -20 -4 -29 3 -9 8 -12 8 -8 1 4 -7 -2 -11 -15 -10 -23 1 -38 25 -16 27
24 2 53 1 75 -5 13 -3 23 -1 23 4 0 4 8 11 17 14 15 6 15 4 -2 -14 -12 -13
-14 -20 -5 -20 10 0 10 -4 -1 -17 -7 -10 -9 -15 -5 -11 5 4 15 0 23 -10 7 -9
12 -12 11 -7 -2 6 2 10 7 10 6 0 9 -6 9 -12 -1 -7 3 -10 8 -7 5 3 7 12 4 20
-3 8 -1 14 4 14 6 0 10 -5 10 -12 0 -6 2 -9 5 -6 3 3 3 12 0 21 -6 15 -28 17
-41 4 -4 -4 -11 -7 -15 -7 -9 0 -5 27 6 37 4 4 5 2 1 -5 -4 -6 -3 -12 2 -12
16 0 22 13 11 26 -7 8 -7 14 1 19 6 4 10 3 9 -2 -4 -21 2 -24 19 -12 15 12 16
12 5 -2 -7 -9 -10 -19 -6 -23 4 -4 13 4 20 16 l14 23 -6 -22 c-4 -14 -2 -23 4
-23 6 0 11 7 11 15 0 8 4 15 10 15 5 0 6 -8 3 -17 -6 -15 -4 -16 9 -5 11 9 18
10 23 2 3 -5 11 -10 17 -10 6 0 5 7 -3 18 -7 9 -9 14 -5 10 5 -4 16 -2 25 5
14 10 14 10 4 -4 -7 -9 -10 -19 -6 -22 9 -10 25 -9 19 1 -7 12 12 38 21 28 4
-5 2 -11 -5 -13 -6 -3 -10 -9 -7 -14 4 -5 18 -1 32 8 24 16 26 16 39 -2 12
-16 27 -21 72 -24 7 -1 11 -5 7 -10 -3 -5 -1 -12 5 -16 6 -4 8 -11 5 -16 -4
-5 -1 -9 4 -9 14 0 14 13 -1 28 -9 9 -9 12 -1 12 7 0 15 -4 18 -10 3 -5 12
-10 18 -9 9 0 8 2 -1 6 -6 2 -10 9 -7 13 3 5 12 7 20 4 8 -4 13 -9 11 -13 -6
-10 46 -8 62 2 7 5 12 4 12 -3 0 -7 5 -10 12 -8 14 5 19 58 5 58 -5 0 -6 -7
-3 -16 4 -10 2 -13 -6 -8 -7 5 -8 3 -3 -7 8 -12 6 -12 -9 0 -13 11 -16 11 -14
1 2 -7 -3 -15 -10 -17 -7 -3 -11 1 -10 9 2 7 -3 12 -10 10 -8 -1 -11 2 -7 9 6
8 2 8 -12 0 -14 -7 -24 -7 -33 2 -7 7 -10 7 -7 2 7 -14 -31 -17 -39 -3 -9 14
17 28 35 19 16 -7 43 -7 71 1 8 3 12 3 8 1 -5 -3 -8 -9 -8 -13 0 -14 39 -7 44
7 7 16 21 17 38 0 20 -18 38 -19 38 -2 0 8 5 15 11 15 5 0 7 -5 4 -10 -12 -19
22 -58 48 -56 14 0 24 6 23 13 -3 21 -15 27 -22 9 -8 -22 -25 -21 -18 2 4 13
3 14 -4 4 -7 -11 -10 -11 -15 2 -7 18 8 32 18 16 3 -5 11 -10 17 -10 6 0 5 7
-3 18 -7 9 -9 14 -5 10 5 -4 16 -2 25 5 14 10 14 10 4 -4 -7 -9 -10 -19 -6
-22 9 -10 25 -9 19 1 -7 12 12 38 21 28 4 -5 2 -11 -5 -13 -6 -3 -10 -8 -7
-13 3 -5 19 -2 36 7 17 8 33 12 36 9 4 -3 1 -6 -6 -6 -7 0 -9 -5 -6 -11 5 -7
14 -4 26 7 18 16 20 16 37 1 18 -16 32 -14 32 5 0 5 -4 7 -9 3 -5 -3 -12 -2
-15 3 -2 4 6 8 19 8 13 0 21 -5 18 -11 -2 -7 3 -12 12 -12 9 0 14 6 11 12 -2
6 2 12 9 12 7 0 11 -6 9 -12 -3 -6 2 -12 11 -12 9 0 14 6 11 12 -2 6 2 12 9
12 7 0 11 -6 9 -12 -3 -6 2 -12 11 -12 9 0 14 5 12 12 -3 6 3 11 13 11 10 0
16 -4 14 -8 -3 -4 0 -8 5 -8 6 0 11 -5 11 -11 0 -8 -6 -7 -17 2 -14 12 -16 12
-8 0 5 -10 4 -12 -3 -7 -8 5 -10 1 -6 -11 6 -16 4 -15 -10 2 -10 11 -15 15
-12 9 3 -6 -1 -11 -9 -11 -8 0 -12 4 -10 8 3 4 -2 6 -11 5 -8 -1 -20 -9 -25
-17 -5 -8 -9 -9 -9 -3 0 5 -11 10 -25 10 -25 0 -25 0 -6 -20 17 -16 23 -17 35
-6 11 8 16 9 16 1 0 -6 5 -11 12 -11 9 0 9 3 0 12 -19 19 -14 33 6 16 9 -9 23
-13 30 -11 6 3 12 0 12 -6 0 -6 4 -11 10 -11 5 0 9 3 9 7 -3 20 2 34 11 28 5
-3 6 -13 3 -23 -4 -13 -2 -13 10 3 19 23 22 14 6 -18 -10 -21 -9 -21 5 -3 9
11 27 21 42 22 21 2 25 -1 21 -17 -7 -27 -1 -24 16 9 13 27 12 28 -10 28 -13
0 -23 -4 -23 -8 0 -4 -5 -8 -11 -8 -5 0 -8 4 -4 9 3 5 0 13 -6 17 -8 4 -9 3
-5 -4 4 -7 4 -12 -1 -12 -4 0 -13 11 -19 23 -8 18 -8 24 2 24 7 0 11 -4 9 -8
-3 -4 2 -9 10 -13 8 -3 17 -1 20 4 4 6 12 10 18 9 9 0 8 -2 -1 -6 -6 -2 -9 -9
-6 -15 3 -5 14 -2 25 8 18 16 20 16 37 1 18 -16 32 -14 32 5 0 5 -4 7 -9 3 -5
-3 -12 -2 -15 3 -2 4 6 8 19 8 13 0 21 -5 18 -11 -2 -7 3 -12 12 -12 9 0 14 6
11 12 -2 6 2 12 9 12 7 0 11 -6 9 -12 -3 -6 2 -12 11 -12 9 0 14 6 11 12 -2 6
2 12 9 12 7 0 11 -6 9 -12 -3 -6 2 -12 11 -12 9 0 14 5 12 12 -3 6 3 11 13 11
10 0 16 -4 14 -8 -3 -4 0 -8 5 -8 6 0 11 -5 11 -11 0 -8 -6 -7 -17 2 -14 12
-16 12 -8 0 5 -10 4 -12 -3 -7 -8 5 -10 1 -6 -11 6 -16 4 -15 -10 2 -10 11
-15 15 -12 9 3 -6 -1 -11 -9 -11 -8 0 -12 4 -10 8 3 4 -2 6 -11 5 -8 -1 -20
-9 -25 -17 -5 -8 -9 -9 -9 -3 0 5 -11 10 -25 10 -25 0 -25 0 -6 -20 17 -16 23
-17 35 -6 11 8 16 9 16 1 0 -6 5 -11 12 -11 9 0 9 3 0 12 -19 19 -14 33 6 16
9 -9 23 -13 30 -11 6 3 12 0 12 -6 0 -6 4 -11 10 -11 5 0 9 3 9 7 -3 20 2 34
11 28 5 -3 6 -13 3 -23 -4 -13 -2 -13 10 3 19 23 22 14 7 -18 -11 -22 -10 -22
6 0 12 17 20 20 34 13 25 -13 20 18 -5 32 -13 8 -16 7 -11 -1 4 -6 4 -11 -1
-11 -4 0 -13 11 -19 23 -8 18 -8 24 2 24 7 0 11 -3 9 -7 -2 -4 7 -12 21 -19
29 -13 37 -14 30 -3 -7 12 12 38 21 28 4 -5 2 -11 -5 -13 -6 -3 -10 -9 -7 -14
4 -5 17 -1 31 8 23 15 26 15 45 -6 23 -25 36 -27 36 -6 0 9 -6 14 -14 11 -8
-3 -11 -1 -8 4 3 6 1 10 -6 10 -7 0 -10 3 -7 6 10 9 49 -16 43 -27 -4 -5 -1
-9 6 -9 8 0 7 -5 -2 -17 -8 -9 -9 -14 -2 -10 6 4 14 1 17 -5 2 -7 3 4 0 25 -3
23 -1 37 6 37 6 0 8 -5 5 -10 -12 -19 22 -58 48 -56 14 0 24 6 23 13 -3 21
-15 27 -22 9 -8 -22 -25 -21 -18 2 4 13 3 14 -4 4 -7 -11 -10 -11 -15 2 -7 18
8 32 18 16 3 -5 11 -10 17 -10 6 0 5 7 -3 18 -7 9 -9 14 -5 10 5 -4 16 -2 25
5 14 10 14 10 4 -4 -7 -9 -10 -19 -6 -22 9 -10 25 -9 19 1 -7 12 12 38 21 28
4 -5 2 -11 -5 -13 -10 -4 -10 -8 0 -21 7 -9 8 -13 3 -10 -6 4 -12 -3 -12 -15
-2 -20 -1 -20 8 -4 6 9 15 17 22 17 7 0 6 -4 -3 -10 -8 -5 -11 -12 -7 -16 8
-9 37 27 31 38 -3 4 -12 5 -22 2 -14 -5 -13 -3 3 10 24 20 41 15 37 -10 -2
-10 -3 -27 -3 -37 0 -10 -5 -15 -11 -11 -7 4 -8 2 -4 -5 10 -15 29 -3 22 14
-3 8 2 19 9 25 16 13 16 31 0 42 -7 5 -6 8 1 8 5 0 19 -7 30 -15 19 -15 19
-15 -1 -8 -17 5 -17 3 5 -19 30 -29 51 -20 44 20 -3 21 -2 23 6 12 6 -10 10
-11 10 -2 0 6 5 12 12 12 6 0 3 -9 -7 -20 -18 -19 -17 -20 4 -20 15 0 20 4 15
13 -5 8 -2 8 9 -2 20 -16 23 -1 5 18 -11 10 -10 11 4 6 9 -4 18 -15 21 -26 3
-10 2 -17 -3 -14 -9 6 -23 -25 -15 -33 3 -3 5 0 5 6 0 7 5 12 11 12 5 0 8 -4
5 -8 -3 -5 1 -9 9 -9 9 0 11 5 7 11 -5 6 -7 17 -6 24 1 6 2 16 3 21 0 5 9 12
18 15 15 6 15 4 -2 -14 -11 -12 -13 -20 -6 -20 7 0 10 -4 7 -8 -2 -4 0 -14 6
-22 8 -12 9 -12 5 2 -3 9 -1 19 6 22 9 3 9 5 -1 5 -10 1 -10 5 0 21 7 11 17
20 22 20 6 0 5 -5 -2 -12 -16 -16 -15 -33 1 -19 10 8 17 7 25 -1 7 -7 12 -8
12 -2 0 5 -6 16 -12 23 -11 10 -10 11 5 6 18 -8 23 -30 8 -40 -5 -3 -13 0 -17
6 -5 9 -11 7 -21 -6 -16 -22 -17 -35 -3 -35 5 0 9 5 7 11 -1 6 4 14 12 17 9 3
11 0 6 -9 -5 -8 1 -6 12 4 12 11 24 14 27 9 3 -6 0 -12 -6 -15 -7 -2 -9 -8 -5
-13 4 -5 12 -2 16 5 5 8 14 10 21 6 9 -6 9 -3 0 15 -13 25 1 43 27 33 16 -6
17 -19 1 -29 -6 -4 -8 -3 -5 3 3 5 0 10 -8 10 -13 0 -13 -3 0 -17 8 -9 12 -20
8 -23 -3 -4 -1 -7 5 -7 7 0 12 6 12 13 0 9 3 8 9 -2 7 -11 10 -9 16 8 3 12 11
19 16 15 6 -4 6 -11 -1 -19 -7 -8 -7 -15 -1 -19 5 -4 12 -2 16 4 4 6 11 8 16
5 5 -4 9 -1 9 6 0 8 5 7 17 -2 14 -12 16 -12 8 0 -6 11 -4 13 10 7 15 -5 16
-4 5 9 -10 12 -10 15 3 15 9 0 19 -9 22 -20 3 -11 11 -20 16 -20 6 0 8 4 5 9
-3 5 1 11 9 15 8 3 15 13 15 22 0 10 5 14 15 11 8 -4 17 -2 20 2 2 5 14 11 25
14 11 3 18 1 14 -4 -3 -5 -11 -9 -18 -9 -7 0 -13 -6 -14 -12 0 -7 -3 -24 -7
-38 -5 -24 -5 -24 4 -2 6 12 15 22 21 22 6 0 8 4 5 10 -3 6 1 7 10 4 9 -4 15
-3 14 2 -5 30 6 28 40 -6 24 -24 41 -34 44 -27 3 9 8 8 22 -3 17 -14 17 -14 5
7 -8 11 -21 20 -31 18 -22 -4 -65 40 -49 50 7 4 17 2 23 -4 9 -9 7 -10 -8 -5
-20 7 -20 7 0 -12 25 -25 63 -26 71 -2 3 10 10 18 16 18 6 0 8 -3 5 -6 -3 -4
-2 -14 3 -24 6 -12 5 -17 -5 -17 -7 0 -11 7 -8 16 4 13 3 14 -5 2 -7 -10 -7
-20 1 -32 7 -12 14 -14 18 -7 4 6 12 8 18 4 7 -5 8 -1 4 11 -6 16 -5 16 10 4
9 -7 14 -17 11 -22 -3 -5 0 -9 5 -9 6 0 11 6 11 13 0 9 3 8 9 -2 7 -11 10 -9
16 8 4 13 10 20 13 16 10 -10 9 -29 -3 -37 -6 -5 -6 -8 2 -8 6 0 15 5 18 10 4
6 11 8 16 5 8 -6 11 2 8 21 0 4 5 11 13 15 8 5 1 7 -19 4 -18 -2 -33 1 -33 7
0 5 6 8 13 5 6 -2 19 0 29 4 11 6 18 4 22 -8 6 -14 9 -14 29 3 13 12 17 13 9
3 -6 -9 -9 -19 -5 -22 9 -9 23 -9 22 1 -3 19 2 30 17 36 8 3 13 2 10 -3 -3 -5
1 -12 10 -15 12 -5 15 -2 10 11 -5 15 -4 15 9 -1 8 -11 25 -21 37 -23 30 -5
33 -10 18 -28 -8 -10 -9 -15 -1 -15 6 0 11 5 11 11 0 5 5 7 10 4 20 -12 9 6
-17 32 -23 21 -24 24 -6 14 12 -6 24 -7 27 -2 8 12 60 8 78 -7 15 -12 28 -7
28 10 0 5 -4 7 -9 3 -5 -3 -12 -2 -15 3 -2 4 6 8 19 8 13 0 21 -5 18 -11 -2
-7 3 -12 12 -12 9 0 14 5 12 12 -3 6 3 11 13 11 10 0 17 -3 14 -7 -2 -4 3 -10
12 -13 24 -9 28 -7 15 7 -8 10 -7 14 4 14 8 0 12 -4 9 -9 -3 -4 0 -8 5 -8 6 0
11 -4 11 -8 0 -5 -13 -8 -30 -8 -16 0 -30 4 -30 9 0 5 -7 3 -17 -4 -9 -8 -19
-14 -22 -14 -3 0 -5 -3 -4 -7 2 -5 -2 -8 -7 -8 -6 0 -10 4 -10 9 0 5 -11 8
-25 6 -14 -1 -28 2 -31 7 -3 5 -13 7 -21 4 -8 -3 -11 -1 -8 4 3 6 2 10 -4 10
-19 0 -19 -15 1 -40 20 -24 20 -24 14 -2 -5 13 -3 22 3 22 11 0 15 -13 12 -40
-2 -13 -1 -13 8 0 6 8 11 11 11 6 0 -5 6 -3 14 3 7 6 20 9 28 6 8 -3 21 1 28
10 7 8 17 15 22 15 6 0 5 -7 -2 -15 -12 -14 -7 -20 14 -16 5 1 5 -6 2 -16 -6
-14 -5 -15 5 -6 9 10 10 15 0 27 -7 8 -8 16 -4 19 11 7 33 -19 25 -29 -4 -4
-2 -4 5 0 7 4 9 14 6 24 -6 15 -5 15 11 3 13 -11 19 -12 29 -2 9 10 9 11 -3 8
-8 -2 -12 -2 -8 0 5 3 3 14 -2 26 l-11 22 17 -22 c14 -20 51 -22 39 -3 -3 5 0
12 6 16 8 4 9 3 5 -4 -4 -7 -2 -12 4 -12 7 0 10 -7 7 -15 -8 -19 10 -30 27
-16 7 6 16 8 19 4 4 -3 -1 -12 -11 -20 -15 -13 -15 -13 5 -3 12 5 25 15 29 22
5 7 3 8 -6 3 -9 -6 -11 -4 -5 5 5 9 4 11 -3 6 -8 -5 -10 -1 -5 10 6 15 7 15
15 -1 9 -15 11 -15 29 1 23 20 65 28 49 9 -5 -7 -6 -16 -2 -20 4 -5 1 -5 -7 0
-10 6 -12 4 -6 -5 6 -10 10 -10 19 3 6 8 17 24 24 34 7 10 10 13 7 6 -3 -6 -1
-14 5 -18 6 -4 8 -11 5 -16 -4 -5 -2 -9 4 -9 5 0 8 -8 6 -18 -2 -11 3 -19 10
-19 8 0 11 5 7 11 -15 24 -9 32 21 28 20 -3 28 -1 23 7 -6 10 0 13 20 10 4 0
11 5 16 13 8 10 9 9 4 -4 -3 -10 -1 -20 4 -23 9 -6 14 8 11 28 -1 4 8 3 19 -3
14 -8 26 -8 43 0 20 10 21 10 4 -3 -14 -11 -15 -16 -5 -21 7 -3 4 -4 -7 -3
-11 1 -23 6 -27 12 -4 5 -11 6 -15 1 -4 -5 -2 -11 4 -13 10 -3 10 -10 2 -26
-9 -20 -9 -20 4 -5 11 14 16 15 27 5 10 -9 11 -9 6 1 -7 12 -6 13 32 17 16 2
21 -2 18 -11 -3 -7 -1 -16 5 -19 5 -4 8 -1 7 7 -2 7 3 12 10 10 8 -1 11 2 7 8
-3 5 -1 10 4 10 6 0 11 -4 11 -10 0 -5 5 -10 11 -10 8 0 9 4 0 13 -6 8 -8 17
-4 21 4 4 -1 4 -12 1 -14 -5 -16 -4 -7 3 8 5 13 13 12 18 -1 5 4 10 12 12 9 3
10 1 1 -5 -14 -10 5 -39 26 -38 19 0 25 21 10 31 -9 5 -10 2 -6 -9 4 -11 2
-14 -9 -10 -10 4 -12 9 -4 18 11 13 59 13 79 1 7 -5 9 -1 5 8 -6 16 10 23 19
9 2 -5 2 -2 0 6 -2 9 3 12 19 8 21 -6 22 -5 5 8 -11 7 -14 16 -8 19 5 4 8 15
6 26 -2 11 -1 20 4 20 4 0 6 26 4 58 -2 31 0 64 3 72 4 8 8 130 9 270 4 366 4
382 13 376 5 -3 9 1 9 9 0 8 -4 12 -8 10 -4 -3 -7 29 -7 70 0 41 4 75 9 75 5
0 9 5 9 11 0 5 -4 8 -8 5 -5 -3 -9 8 -10 24 0 16 2 32 6 34 4 2 7 52 6 110 0
72 3 103 10 99 8 -5 8 -3 0 8 -12 16 -17 62 -6 55 4 -2 6 53 6 122 -1 70 1
131 3 135 3 4 6 62 8 127 2 83 7 125 16 137 10 12 10 15 1 9 -9 -5 -12 4 -10
38 0 25 5 43 11 39 5 -3 4 4 -2 16 -7 11 -8 21 -4 21 4 0 8 35 7 78 0 42 2 81
4 86 3 5 4 40 3 78 -1 37 1 68 6 68 4 0 7 32 6 70 -1 39 2 68 7 65 4 -3 6 4 3
15 -3 11 1 28 8 37 8 9 9 14 3 10 -8 -5 -11 5 -9 31 1 20 3 37 4 37 1 0 3 47
5 104 3 73 8 106 17 112 10 6 11 9 2 9 -7 0 -13 7 -13 16 0 8 3 13 8 11 15
-10 6 118 -12 154 -20 43 -80 111 -90 102 -3 -3 -6 0 -6 9 0 8 -9 14 -21 14
-19 -1 -27 17 -69 139 -58 172 -85 233 -144 324 -185 283 -497 525 -803 622
l-73 23 -16 55 c-9 31 -17 61 -17 68 0 8 -6 9 -18 2 -11 -6 -16 -16 -13 -27 5
-14 4 -14 -4 -3 -13 19 -56 26 -46 9 5 -8 0 -7 -11 2 -17 14 -18 13 -12 -2 3
-10 2 -20 -4 -23 -5 -4 -9 -3 -8 2 3 19 -2 33 -11 33 -6 0 -8 -12 -5 -27 3
-16 7 -40 10 -54 4 -23 1 -26 -23 -27 -15 0 -61 -3 -102 -7 -41 -3 -86 -7
-100 -8 -18 -2 -26 3 -27 18 -5 54 -8 65 -15 65 -4 0 -8 8 -8 18 0 21 -27 25
-48 9 -9 -7 -17 -6 -25 2 -9 10 -8 12 8 9 14 -2 20 3 21 20 1 12 -3 22 -8 22
-5 0 -6 -10 -3 -22 6 -19 5 -21 -6 -10 -16 14 -33 16 -24 2 3 -5 1 -10 -6 -10
-10 0 -10 -3 -1 -12 15 -15 16 -28 2 -28 -6 0 -9 3 -9 8 4 21 -3 24 -16 6 -13
-16 -14 -16 -9 -1 7 19 -12 24 -19 5 -4 -10 -6 -9 -6 1 -1 11 -4 11 -16 1 -19
-15 -10 -31 13 -23 16 5 16 5 -1 -8 -14 -12 -15 -20 -7 -49 5 -19 6 -37 2 -41
-6 -5 -92 -29 -105 -29 -4 0 -8 10 -22 60 -1 3 -5 24 -9 48 -4 23 -12 42 -16
42 -5 0 -7 9 -5 20 3 13 0 18 -7 14 -8 -5 -9 -1 -5 12 7 19 7 19 -8 0 -8 -10
-12 -22 -10 -26 3 -5 -2 -11 -11 -14 -21 -8 -24 -8 -24 5 0 5 6 7 13 3 6 -4 9
-4 5 1 -4 4 -3 17 3 29 9 19 8 19 -7 -1 -9 -13 -21 -23 -27 -23 -7 0 -7 4 1
12 7 7 12 16 12 20 0 4 -9 -1 -20 -12 -22 -22 -40 -26 -40 -10 0 6 -6 10 -12
9 -25 -3 -39 1 -34 9 3 5 -2 9 -11 9 -9 0 -18 -9 -21 -20z m63 -19 c5 -2 11
-12 12 -23 3 -19 2 -19 -8 -2 -6 10 -22 22 -35 27 -13 5 -24 14 -24 20 0 6 10
4 23 -4 12 -8 26 -16 32 -18z m-22 -13 c18 -8 23 -25 7 -25 -5 0 -10 5 -10 10
0 6 -6 10 -12 9 -30 -4 -59 2 -54 10 6 10 40 8 69 -4z m80 1 c5 -12 -2 -14
-31 -7 -2 1 0 6 3 11 9 14 22 12 28 -4z m71 -14 c3 -5 -1 -9 -9 -9 -8 0 -15 4
-15 9 0 4 4 8 9 8 6 0 12 -4 15 -8z m310 0 c2 -4 -4 -8 -14 -8 -10 0 -16 4
-14 8 3 4 9 8 14 8 5 0 11 -4 14 -8z m-3171 -4334 c-2 -5 -13 -13 -25 -19 -13
-7 -18 -7 -14 -1 4 6 -1 15 -10 20 -13 7 -8 9 18 8 20 0 34 -4 31 -8z m1422 2
c3 -6 -1 -7 -9 -4 -18 7 -21 14 -7 14 6 0 13 -4 16 -10z m66 -7 c13 -16 12
-17 -3 -4 -17 13 -22 21 -14 21 2 0 10 -8 17 -17z m1553 9 c2 -4 -4 -8 -14 -8
-10 0 -16 4 -14 8 3 4 9 8 14 8 5 0 11 -4 14 -8z m121 -2 c3 -6 -1 -7 -9 -4
-18 7 -21 14 -7 14 6 0 13 -4 16 -10z m360 0 c3 -6 -1 -7 -9 -4 -18 7 -21 14
-7 14 6 0 13 -4 16 -10z m976 -9 c-6 -10 -7 -22 -3 -26 4 -5 1 -5 -6 -1 -9 5
-9 12 -2 27 6 10 13 19 16 19 2 0 0 -8 -5 -19z m-3256 -3 c28 -12 33 -25 10
-25 -8 0 -11 5 -8 10 4 6 -1 8 -11 4 -9 -4 -15 -3 -11 2 3 5 -1 12 -7 14 -7 3
-10 6 -6 6 4 1 19 -4 33 -11z m2150 2 c-3 -5 -14 -10 -23 -9 -14 0 -13 2 3 9
27 11 27 11 20 0z m929 -6 c3 -7 -2 -10 -15 -7 -22 6 -26 20 -4 20 8 0 16 -6
19 -13z m203 -4 c-1 -22 -17 -28 -17 -7 0 12 9 27 16 27 2 0 2 -9 1 -20z
m-1804 -10 c3 -11 1 -20 -4 -20 -5 0 -9 9 -9 20 0 11 2 20 4 20 2 0 6 -9 9
-20z m438 -2 c7 -10 9 -10 9 0 0 6 4 12 8 12 5 0 9 -7 9 -15 0 -8 -4 -12 -9
-9 -4 3 -8 0 -8 -7 0 -6 -8 -1 -18 11 l-19 23 -16 -24 c-10 -13 -17 -20 -17
-15 0 5 -12 0 -27 -10 -22 -14 -25 -14 -15 -2 9 11 10 18 2 23 -13 8 -13 25 1
25 5 0 8 -4 5 -9 -7 -11 14 -20 32 -13 6 2 12 9 12 14 0 6 -6 5 -15 -2 -9 -8
-15 -8 -15 -2 0 23 67 23 81 0z m355 9 c3 -2 2 -11 -1 -20 -7 -17 -26 -17 -47
1 -8 6 -18 9 -21 5 -4 -3 -7 -1 -7 5 0 5 6 12 13 15 14 4 57 1 63 -6z m606 4
c-8 -4 -13 -12 -12 -17 1 -5 -4 -10 -12 -12 -9 -2 -8 0 2 7 8 6 11 11 7 11 -5
0 -5 5 -2 10 3 6 12 10 18 10 8 0 8 -3 -1 -9z m-1168 -17 c3 -8 2 -12 -4 -9
-6 3 -10 10 -10 16 0 14 7 11 14 -7z m86 9 c0 -14 -15 -28 -30 -31 -12 -2 -11
1 2 11 10 8 15 17 11 20 -3 4 -1 7 5 7 7 0 12 -3 12 -7z m530 -28 c0 -2 -6 -5
-13 -8 -8 -3 -14 1 -14 8 0 7 6 11 14 8 7 -3 13 -6 13 -8z m-2710 -1 c0 -8
-19 -13 -24 -6 -3 5 1 9 9 9 8 0 15 -2 15 -3z m530 0 c0 -8 -19 -13 -24 -6 -3
5 1 9 9 9 8 0 15 -2 15 -3z m415 -12 c-3 -3 -11 0 -18 7 -9 10 -8 11 6 5 10
-3 15 -9 12 -12z m320 0 c-3 -3 -11 0 -18 7 -9 10 -8 11 6 5 10 -3 15 -9 12
-12z m1745 14 c0 -3 -4 -8 -10 -11 -5 -3 -10 -1 -10 4 0 6 5 11 10 11 6 0 10
-2 10 -4z"/>
<path d="M3728 598 c14 -18 47 -13 35 5 -5 8 -8 7 -11 -1 -3 -10 -7 -10 -20 0
-15 12 -15 11 -4 -4z"/>
<path d="M3025 5020 c-3 -6 1 -7 9 -4 18 7 21 14 7 14 -6 0 -13 -4 -16 -10z"/>
<path d="M3322 5014 c-6 -11 -12 -13 -16 -6 -4 6 -14 8 -22 5 -13 -5 -13 -7
-2 -14 10 -7 10 -9 1 -9 -7 0 -13 -5 -13 -11 0 -6 5 -7 13 -2 6 4 23 8 36 8
14 1 26 7 29 15 3 13 2 13 -8 0 -10 -12 -11 -11 -7 8 6 26 2 28 -11 6z"/>
<path d="M3757 5014 c5 -14 3 -15 -15 -5 -15 8 -23 8 -28 -1 -4 -7 -3 -8 4 -4
7 4 12 3 12 -3 0 -12 33 -7 37 6 2 6 -1 14 -6 18 -7 4 -8 0 -4 -11z"/>
<path d="M3805 5009 c-11 -16 -1 -19 13 -3 7 8 8 14 3 14 -5 0 -13 -5 -16 -11z"/>
<path d="M3428 5003 c7 -3 16 -2 19 1 4 3 -2 6 -13 5 -11 0 -14 -3 -6 -6z"/>
<path d="M2840 4980 c0 -5 5 -10 11 -10 5 0 7 5 4 10 -3 6 -8 10 -11 10 -2 0
-4 -4 -4 -10z"/>
<path d="M4876 618 c3 -5 10 -6 15 -3 13 9 11 12 -6 12 -8 0 -12 -4 -9 -9z"/>
<path d="M415 611 c-3 -5 -1 -12 5 -16 5 -3 10 1 10 9 0 18 -6 21 -15 7z"/>
<path d="M4455 610 c-3 -5 -3 -15 1 -22 5 -7 3 -8 -6 -3 -7 4 -16 2 -21 -6
-12 -20 -11 -26 6 -33 8 -3 14 0 12 7 -1 7 6 11 15 11 13 -1 15 2 9 15 -5 9
-6 22 -4 29 6 14 -3 16 -12 2z"/>
<path d="M510 580 c-26 -36 -16 -40 15 -5 18 19 24 21 29 10 3 -8 1 -15 -5
-15 -6 0 -7 -5 -3 -12 5 -8 11 -5 17 10 6 12 14 22 19 22 12 0 10 -14 -4 -29
-7 -8 0 -6 15 4 27 17 28 26 4 31 -7 2 -24 5 -39 9 -21 4 -31 -1 -48 -25z"/>
<path d="M1075 600 c-3 -5 -1 -10 4 -10 6 0 11 5 11 10 0 6 -2 10 -4 10 -3 0
-8 -4 -11 -10z"/>
<path d="M1426 595 c-10 -8 -22 -13 -25 -10 -4 2 -8 -6 -8 -17 -2 -18 0 -18
10 -5 16 21 48 16 58 -9 7 -18 8 -18 9 1 1 20 1 20 15 1 8 -11 15 -15 15 -8 0
9 -46 63 -53 62 -1 0 -11 -7 -21 -15z m35 -12 c12 -16 12 -17 -2 -6 -9 7 -20
9 -24 5 -5 -4 -5 -1 -1 6 9 16 11 15 27 -5z"/>
<path d="M1555 600 c-3 -5 -1 -10 4 -10 6 0 11 5 11 10 0 6 -2 10 -4 10 -3 0
-8 -4 -11 -10z"/>
<path d="M1960 595 c-9 -11 -16 -12 -26 -4 -9 7 -19 7 -32 0 -11 -6 -21 -8
-24 -6 -2 2 -5 -6 -5 -18 -2 -19 -1 -20 8 -4 6 9 15 17 22 17 7 0 6 -4 -3 -10
-8 -5 -11 -12 -7 -17 5 -4 11 -3 15 2 4 6 15 11 26 13 15 3 18 -1 13 -17 -3
-12 -3 -21 -1 -21 6 0 28 53 26 63 -3 12 2 8 22 -15 15 -17 15 -20 3 -15 -9 3
-19 2 -21 -2 -3 -5 5 -8 17 -7 23 2 25 20 5 43 -14 17 -23 16 -38 -2z m-30
-15 c0 -5 -2 -10 -4 -10 -3 0 -8 5 -11 10 -3 6 -1 10 4 10 6 0 11 -4 11 -10z"/>
<path d="M2284 598 c-4 -6 -3 -8 4 -4 15 9 26 -12 13 -28 -9 -10 -6 -13 11
-12 24 2 26 19 6 43 -13 16 -25 16 -34 1z"/>
<path d="M2626 595 c-10 -8 -22 -13 -25 -10 -4 2 -8 -6 -8 -17 -2 -18 0 -18
10 -5 10 14 33 16 57 7 3 -1 8 -2 13 -1 4 0 7 -3 7 -8 0 -5 7 -11 15 -15 21
-8 19 -3 -15 33 -35 36 -30 34 -54 16z m35 -12 c12 -16 12 -17 -2 -6 -9 7 -20
9 -24 5 -5 -4 -5 -1 -1 6 9 16 11 15 27 -5z"/>
<path d="M2885 600 c3 -5 8 -10 11 -10 2 0 4 5 4 10 0 6 -5 10 -11 10 -5 0 -7
-4 -4 -10z"/>
<path d="M3554 603 c3 -6 2 -14 -4 -18 -13 -8 6 -45 23 -45 8 0 7 4 -3 10 -8
5 -11 12 -7 16 3 4 13 1 22 -6 27 -23 22 -6 -8 25 -16 17 -27 25 -23 18z"/>
<path d="M3917 603 c-3 -3 -3 -11 0 -19 3 -8 0 -14 -6 -14 -6 0 -11 -4 -11 -8
0 -5 7 -9 14 -9 8 0 15 3 14 6 -2 20 3 31 12 26 6 -4 7 -11 4 -17 -4 -6 2 -5
15 2 18 9 21 30 5 30 -3 0 -2 -4 1 -10 3 -5 1 -10 -4 -10 -6 0 -11 4 -11 9 0
11 -26 22 -33 14z"/>
<path d="M4095 600 c3 -5 8 -10 11 -10 2 0 4 5 4 10 0 6 -5 10 -11 10 -5 0 -7
-4 -4 -10z"/>
<path d="M4502 585 c-9 -20 -9 -23 3 -18 17 6 21 -12 5 -20 -6 -3 -5 -4 2 -3
13 3 20 66 8 66 -4 0 -12 -11 -18 -25z"/>
<path d="M4616 594 c-3 -9 -2 -23 4 -32 9 -16 9 -16 10 1 0 9 5 17 10 17 6 0
10 -9 10 -19 0 -32 15 -32 16 0 1 15 -2 26 -7 24 -4 -3 -14 1 -22 10 -13 13
-16 13 -21 -1z"/>
<path d="M1315 589 c-4 -6 -2 -16 4 -22 16 -16 59 -16 57 0 -3 21 -15 27 -22
9 -3 -9 -11 -16 -16 -16 -6 0 -8 7 -5 15 7 17 -9 30 -18 14z"/>
<path d="M1732 575 c10 -22 14 -24 16 -12 2 10 8 15 13 11 5 -3 6 -11 3 -17
-4 -7 -3 -8 1 -4 16 14 13 35 -4 32 -9 -1 -22 2 -29 8 -11 9 -11 5 0 -18z"/>
<path d="M3462 572 l-12 -25 25 23 c29 27 29 27 12 27 -7 0 -18 -12 -25 -25z"/>
<path d="M4316 584 c-9 -8 -16 -21 -16 -27 0 -7 4 -6 10 3 9 13 11 13 19 1 7
-10 9 -7 8 12 -2 32 -1 31 -21 11z"/>
<path d="M4875 591 c-3 -5 -2 -12 3 -15 5 -3 9 1 9 9 0 17 -3 19 -12 6z"/>
<path d="M622 570 c-7 -12 -8 -20 -2 -20 5 0 10 5 10 11 0 8 6 7 18 -2 15 -12
16 -12 5 2 -7 9 -10 19 -6 22 3 4 2 7 -3 7 -5 0 -15 -9 -22 -20z"/>
<path d="M780 566 c-10 -17 -10 -19 1 -8 20 18 33 15 18 -5 -11 -15 -11 -16 1
-6 8 7 15 19 16 26 3 21 -22 16 -36 -7z"/>
<path d="M1274 575 c10 -8 12 -16 6 -23 -7 -9 -7 -9 2 -2 19 16 17 36 -4 36
-17 0 -17 -2 -4 -11z"/>
<path d="M2927 577 c-3 -8 -1 -20 5 -28 8 -11 9 -10 4 4 -6 19 10 24 17 5 4
-8 6 -9 6 -2 1 6 -5 17 -13 23 -10 9 -15 8 -19 -2z"/>
<path d="M3035 579 c-4 -6 -5 -12 -2 -15 2 -3 7 2 10 11 7 17 1 20 -8 4z"/>
<path d="M3850 581 c0 -3 4 -12 9 -19 6 -11 9 -9 13 5 3 12 0 20 -8 20 -8 0
-14 -3 -14 -6z"/>
<path d="M3982 569 c-14 -22 -7 -25 14 -5 8 8 11 17 6 20 -4 2 -13 -4 -20 -15z"/>
<path d="M3000 565 c-7 -9 -8 -15 -2 -15 5 0 12 7 16 15 3 8 4 15 2 15 -2 0
-9 -7 -16 -15z"/>
<path d="M4586 563 c-6 -14 -5 -15 5 -6 7 7 10 15 7 18 -3 3 -9 -2 -12 -12z"/>
<path d="M246 558 c3 -5 10 -6 15 -3 13 9 11 12 -6 12 -8 0 -12 -4 -9 -9z"/>
<path d="M385 560 c3 -5 8 -10 11 -10 2 0 4 5 4 10 0 6 -5 10 -11 10 -5 0 -7
-4 -4 -10z"/>
<path d="M977 553 c5 -12 3 -14 -7 -8 -9 5 -11 4 -6 -4 4 -6 12 -9 17 -6 12 8
12 35 -1 35 -5 0 -6 -7 -3 -17z"/>
<path d="M1410 562 c0 -4 10 -9 22 -9 18 -2 20 0 8 7 -18 12 -30 13 -30 2z"/>
<path d="M1510 559 c0 -5 5 -7 10 -4 6 3 10 8 10 11 0 2 -4 4 -10 4 -5 0 -10
-5 -10 -11z"/>
<path d="M2610 562 c0 -4 10 -9 22 -9 18 -2 20 0 8 7 -18 12 -30 13 -30 2z"/>
<path d="M4794 540 c0 -13 4 -16 10 -10 7 7 7 13 0 20 -6 6 -10 3 -10 -10z"/>
<path d="M580 540 c-9 -6 -10 -10 -3 -10 6 0 15 5 18 10 8 12 4 12 -15 0z"/>
<path d="M686 542 c-3 -5 1 -9 9 -9 8 0 12 4 9 9 -3 4 -7 8 -9 8 -2 0 -6 -4
-9 -8z"/>
<path d="M820 540 c-9 -6 -10 -10 -3 -10 6 0 15 5 18 10 8 12 4 12 -15 0z"/>
<path d="M1115 540 c-3 -6 1 -7 9 -4 18 7 21 14 7 14 -6 0 -13 -4 -16 -10z"/>
<path d="M1158 543 c7 -3 16 -2 19 1 4 3 -2 6 -13 5 -11 0 -14 -3 -6 -6z"/>
<path d="M1300 540 c-9 -6 -10 -10 -3 -10 6 0 15 5 18 10 8 12 4 12 -15 0z"/>
<path d="M1716 542 c-3 -4 4 -9 15 -9 23 -2 25 3 4 10 -8 4 -16 3 -19 -1z"/>
<path d="M1780 540 c-9 -6 -10 -10 -3 -10 6 0 15 5 18 10 8 12 4 12 -15 0z"/>
<path d="M2020 540 c-9 -6 -10 -10 -3 -10 6 0 15 5 18 10 8 12 4 12 -15 0z"/>
<path d="M2116 542 c-3 -4 4 -9 15 -9 23 -2 25 3 4 10 -8 4 -16 3 -19 -1z"/>
<path d="M2225 540 c-3 -6 1 -7 9 -4 18 7 21 14 7 14 -6 0 -13 -4 -16 -10z"/>
<path d="M2340 540 c-9 -6 -10 -10 -3 -10 6 0 15 5 18 10 8 12 4 12 -15 0z"/>
<path d="M2436 542 c-3 -4 4 -9 15 -9 23 -2 25 3 4 10 -8 4 -16 3 -19 -1z"/>
<path d="M2546 542 c-3 -5 1 -9 9 -9 8 0 12 4 9 9 -3 4 -7 8 -9 8 -2 0 -6 -4
-9 -8z"/>
<path d="M2740 540 c-9 -6 -10 -10 -3 -10 6 0 15 5 18 10 8 12 4 12 -15 0z"/>
<path d="M3020 540 c-9 -6 -10 -10 -3 -10 6 0 15 5 18 10 8 12 4 12 -15 0z"/>
<path d="M3160 540 c-9 -6 -10 -10 -3 -10 6 0 15 5 18 10 8 12 4 12 -15 0z"/>
<path d="M3220 540 c-9 -6 -10 -10 -3 -10 6 0 15 5 18 10 8 12 4 12 -15 0z"/>
<path d="M3647 539 c7 -7 15 -10 18 -7 3 3 -2 9 -12 12 -14 6 -15 5 -6 -5z"/>
<path d="M3700 540 c-9 -6 -10 -10 -3 -10 6 0 15 5 18 10 8 12 4 12 -15 0z"/>
<path d="M3887 539 c7 -7 15 -10 18 -7 3 3 -2 9 -12 12 -14 6 -15 5 -6 -5z"/>
<path d="M3940 540 c-9 -6 -10 -10 -3 -10 6 0 15 5 18 10 8 12 4 12 -15 0z"/>
<path d="M4135 540 c3 -5 8 -10 11 -10 2 0 4 5 4 10 0 6 -5 10 -11 10 -5 0 -7
-4 -4 -10z"/>
<path d="M4596 533 c-6 -14 -5 -15 5 -6 7 7 10 15 7 18 -3 3 -9 -2 -12 -12z"/>
<path d="M4716 538 c3 -5 10 -6 15 -3 13 9 11 12 -6 12 -8 0 -12 -4 -9 -9z"/>
<path d="M3486 522 c-3 -5 1 -9 9 -9 8 0 12 4 9 9 -3 4 -7 8 -9 8 -2 0 -6 -4
-9 -8z"/>
</g>
</svg>
