<?xml version="1.0" standalone="no"?>
<!DOCTYPE svg PUBLIC "-//W3C//DTD SVG 20010904//EN"
 "http://www.w3.org/TR/2001/REC-SVG-20010904/DTD/svg10.dtd">
<svg version="1.0" xmlns="http://www.w3.org/2000/svg"
 width="320.000000pt" height="320.000000pt" viewBox="0 0 320.000000 320.000000"
 preserveAspectRatio="xMidYMid meet">
<metadata>
Created by potrace 1.14, written by Peter Selinger 2001-2017
</metadata>
<g transform="translate(0.000000,320.000000) scale(0.100000,-0.100000)"
fill="#000000" stroke="none">
<path d="M701 2066 c-7 -8 -23 -17 -36 -20 -25 -6 -25 -7 -10 -43 8 -20 14
-37 13 -38 -2 -1 -27 -14 -55 -28 l-53 -26 -16 32 c-9 18 -18 33 -19 35 -2 2
-18 -6 -36 -17 -19 -12 -39 -21 -45 -21 -6 0 -23 28 -39 63 -16 34 -30 63 -31
65 -1 2 -29 -10 -62 -26 l-60 -28 33 -68 34 -67 -27 -12 c-15 -6 -33 -18 -41
-26 -13 -11 -17 -10 -32 8 l-18 22 -98 -48 c-54 -26 -99 -48 -101 -49 -1 -1
11 -31 28 -67 36 -77 36 -81 10 -93 -20 -9 -16 -19 75 -202 52 -106 95 -196
95 -200 0 -4 9 -21 20 -39 l19 -32 63 31 c35 17 64 33 66 34 2 1 -19 47 -46
103 l-48 101 44 25 c60 34 74 32 94 -12 34 -76 138 -287 146 -295 5 -5 92 29
120 48 2 1 -31 73 -72 159 -42 86 -73 162 -69 169 4 6 6 18 5 26 -2 10 22 26
67 48 38 17 72 36 75 40 3 4 -1 19 -8 33 -12 23 -10 25 43 51 50 23 57 25 68
11 7 -9 14 -21 16 -27 3 -7 21 -3 51 12 26 12 46 26 44 30 -9 21 -142 292
-156 320 -18 35 -33 40 -51 18z"/>
<path d="M873 1592 c-13 -2 -24 -9 -24 -15 -1 -7 -3 -22 -4 -34 -1 -12 -5 -30
-9 -40 -5 -10 -10 -29 -12 -43 -13 -72 -23 -56 -45 68 -10 57 -13 62 -36 62
-25 0 -27 -10 -9 -65 1 -5 8 -37 15 -71 7 -34 16 -66 20 -73 9 -15 52 -23 68
-13 10 6 68 222 61 226 -2 1 -13 0 -25 -2z"/>
<path d="M1290 1564 c0 -32 -2 -34 -34 -34 -44 0 -66 -29 -66 -85 0 -61 16
-77 83 -80 36 -1 57 2 58 9 1 16 1 188 0 206 -1 9 -10 16 -21 17 -16 1 -20 -4
-20 -33z m0 -114 c0 -44 -19 -61 -45 -40 -15 13 -21 61 -8 73 3 4 17 7 30 7
20 0 23 -5 23 -40z"/>
<path d="M2115 1570 c-21 -23 -28 -121 -12 -159 16 -36 34 -45 94 -46 42 -1
53 2 56 17 6 23 1 26 -52 26 -53 1 -63 9 -66 59 -3 65 11 83 66 83 31 0 49 5
52 14 9 22 -2 26 -63 26 -44 0 -61 -5 -75 -20z"/>
<path d="M927 1515 c-19 -18 -20 -120 -1 -136 7 -5 38 -12 68 -14 49 -2 56 -1
56 16 0 19 -6 21 -62 21 -17 1 -28 6 -28 14 0 10 13 14 38 14 60 0 86 44 52
85 -17 20 -104 20 -123 0z m93 -40 c0 -10 -10 -15 -30 -15 -20 0 -30 5 -30 15
0 10 10 15 30 15 20 0 30 -5 30 -15z"/>
<path d="M1101 1516 c-11 -13 -21 -145 -11 -147 3 0 13 -2 23 -4 15 -3 17 5
17 61 0 55 2 64 18 64 24 0 32 8 25 26 -7 18 -57 18 -72 0z"/>
<path d="M1380 1520 c-18 -11 -20 -124 -3 -141 11 -11 110 -20 126 -12 4 2 3
12 -3 22 -7 15 -18 17 -50 14 -32 -4 -40 -2 -40 12 0 9 6 15 13 14 33 -4 67 2
81 16 16 17 12 65 -7 77 -17 11 -99 10 -117 -2z m90 -46 c0 -9 -11 -14 -35
-14 -26 0 -33 4 -29 14 6 14 41 26 57 18 4 -2 7 -10 7 -18z"/>
<path d="M1542 1448 c3 -68 6 -82 21 -84 18 -2 20 3 20 78 0 36 3 47 17 51 30
8 41 -8 44 -64 4 -70 3 -68 24 -65 14 2 18 15 20 66 4 84 -10 100 -90 100
l-59 0 3 -82z"/>
<path d="M1732 1518 c-13 -13 -16 -116 -4 -136 10 -15 119 -24 128 -10 10 16
-12 30 -52 31 -53 3 -49 21 6 27 38 4 46 9 54 33 16 44 -2 61 -65 65 -33 2
-59 -2 -67 -10z m96 -40 c-7 -20 -65 -23 -65 -4 0 11 10 16 35 16 22 0 32 -4
30 -12z"/>
<path d="M1911 1521 c-11 -7 -15 -30 -15 -82 -1 -67 0 -72 21 -74 20 -1 22 3
21 44 0 77 1 81 22 81 13 0 20 7 20 20 0 15 -7 20 -27 20 -16 0 -35 -4 -42 -9z"/>
<path d="M2290 1510 c0 -17 7 -20 44 -20 25 0 48 -4 51 -10 6 -10 1 -11 -59
-14 -39 -2 -57 -29 -44 -67 5 -16 16 -30 24 -30 44 -4 101 -5 112 -1 15 5 17
115 2 143 -9 15 -22 19 -70 19 -53 0 -60 -2 -60 -20z m93 -79 c5 -1 7 -6 5
-13 -6 -16 -55 -21 -64 -7 -8 14 13 28 35 24 9 -2 20 -4 24 -4z"/>
<path d="M2470 1510 c-6 -11 -10 -48 -8 -82 3 -53 6 -61 24 -64 19 -3 20 1 19
61 -2 64 -1 65 25 65 26 0 27 -2 25 -52 -2 -65 2 -77 23 -74 17 3 19 12 21 89
1 33 4 37 26 37 24 0 25 -2 25 -63 0 -56 2 -63 20 -64 21 -2 23 10 21 101 -1
60 -11 66 -117 66 -83 0 -94 -2 -104 -20z"/>
<path d="M2724 1423 c1 -101 2 -108 21 -108 13 0 21 8 25 26 4 18 10 25 24 23
65 -10 98 71 58 144 -11 19 -21 22 -71 22 l-57 0 0 -107z m98 53 c4 -34 4 -43
-4 -58 -5 -10 -18 -18 -28 -18 -17 0 -20 7 -20 49 0 46 1 48 25 43 14 -2 26
-9 27 -16z"/>
<path d="M2892 1464 c0 -84 14 -101 84 -98 27 1 53 2 57 3 4 0 7 36 5 79 -3
70 -5 77 -24 80 -19 3 -21 -1 -19 -50 2 -67 -2 -78 -30 -78 -28 0 -32 10 -29
78 1 48 -1 52 -21 52 -21 0 -22 -5 -23 -66z"/>
<path d="M3082 1518 c-13 -13 -16 -56 -4 -75 4 -6 23 -13 42 -15 19 -2 33 -7
30 -13 -5 -9 -14 -11 -62 -14 -10 -1 -18 -9 -18 -19 0 -16 8 -19 53 -18 60 1
77 13 77 55 0 34 -26 54 -62 49 -12 -2 -23 3 -25 10 -3 6 4 12 14 13 10 1 29
2 43 2 15 1 25 8 25 17 0 20 -94 27 -113 8z"/>
<path d="M780 1302 c-22 -8 -30 -23 -30 -60 0 -51 16 -72 54 -72 39 0 53 13
57 55 3 32 -8 75 -19 76 -4 0 -16 2 -27 4 -11 1 -27 0 -35 -3z m51 -36 c1 -6
3 -21 4 -33 2 -24 -11 -40 -34 -39 -14 1 -29 31 -25 54 1 6 2 16 3 21 2 13 51
10 52 -3z"/>
<path d="M879 1308 c0 -1 -2 -33 -3 -70 -2 -69 -2 -70 39 -70 31 0 36 3 45 26
14 37 1 66 -31 73 -19 3 -28 11 -27 21 2 12 -20 32 -23 20z m59 -94 c-2 -10
-11 -20 -21 -22 -13 -3 -16 2 -15 20 2 13 7 26 13 30 14 10 28 -6 23 -28z"/>
<path d="M1333 1239 c-2 -62 0 -70 15 -67 13 2 16 11 14 35 -2 17 2 34 8 38
15 10 23 0 26 -32 1 -16 2 -32 3 -36 1 -5 6 -7 13 -5 12 4 16 67 4 86 -4 7
-18 12 -32 12 -17 0 -24 5 -24 20 0 11 -6 20 -13 20 -8 0 -13 -22 -14 -71z"/>
<path d="M1550 1240 c0 -54 3 -70 14 -70 11 0 14 16 13 70 -1 51 -4 70 -14 70
-9 0 -13 -19 -13 -70z"/>
<path d="M987 1263 c-4 -3 -7 -25 -7 -49 0 -38 2 -42 28 -46 36 -5 64 1 57 13
-4 5 -17 9 -31 9 -13 0 -24 5 -24 10 0 6 6 10 13 9 35 -4 47 2 47 25 0 13 -7
27 -16 30 -21 8 -59 8 -67 -1z m44 -36 c-13 -13 -26 -3 -16 12 3 6 11 8 17 5
6 -4 6 -10 -1 -17z"/>
<path d="M1092 1253 c-4 -10 -7 -28 -6 -40 1 -13 2 -30 3 -39 2 -29 21 -3 21
31 0 21 6 35 16 39 8 3 12 10 9 16 -10 16 -33 12 -43 -7z"/>
<path d="M1157 1264 c-4 -4 -7 -18 -7 -31 0 -16 6 -23 19 -23 11 0 23 -4 26
-10 4 -6 -5 -10 -19 -10 -26 0 -38 -19 -13 -21 19 -2 62 2 66 7 2 1 1 15 -3
29 -4 16 -13 25 -26 25 -11 0 -20 4 -20 8 0 5 9 8 20 8 10 -1 20 4 22 9 3 12
-54 19 -65 9z"/>
<path d="M1250 1251 c-22 -42 16 -100 56 -84 23 9 16 23 -11 23 -20 0 -25 5
-25 25 0 14 5 26 10 26 6 1 15 2 22 3 6 0 13 7 16 14 7 21 -56 15 -68 -7z"/>
<path d="M1442 1221 c3 -39 7 -46 28 -51 48 -12 60 -2 60 49 0 36 -4 48 -15
48 -10 0 -15 -8 -14 -21 3 -41 -1 -56 -16 -56 -14 0 -20 21 -16 61 1 9 -6 16
-14 16 -13 0 -16 -9 -13 -46z"/>
<path d="M1611 1261 c-14 -9 -23 -62 -12 -79 10 -17 81 -19 81 -2 0 6 -14 10
-31 10 -18 0 -28 4 -24 10 4 6 12 10 18 9 25 -3 35 1 41 17 13 34 -37 58 -73
35z m45 -24 c4 -4 -2 -7 -14 -7 -12 0 -22 4 -22 9 0 10 26 9 36 -2z"/>
</g>
</svg>
