<?xml version="1.0" standalone="no"?>
<!DOCTYPE svg PUBLIC "-//W3C//DTD SVG 20010904//EN"
 "http://www.w3.org/TR/2001/REC-SVG-20010904/DTD/svg10.dtd">
<svg version="1.0" xmlns="http://www.w3.org/2000/svg"
 width="512.000000pt" height="512.000000pt" viewBox="0 0 512.000000 512.000000"
 preserveAspectRatio="xMidYMid meet">
<metadata>
Created by potrace 1.14, written by Peter Selinger 2001-2017
</metadata>
<g transform="translate(0.000000,512.000000) scale(0.100000,-0.100000)"
fill="#000000" stroke="none">
<path d="M2085 4680 c-11 -5 -34 -9 -52 -9 -21 -1 -45 -12 -69 -33 l-36 -32 3
-80 c1 -45 1 -288 1 -542 l-2 -461 -37 -26 c-21 -14 -58 -36 -83 -49 -25 -12
-47 -24 -50 -26 -2 -2 -5 -48 -6 -102 l-1 -100 -64 -60 c-35 -33 -67 -60 -71
-60 -5 0 -8 53 -8 118 0 66 -3 206 -7 313 l-6 194 -51 32 c-28 17 -91 50 -141
72 l-90 42 -126 -2 -127 -1 -60 -37 c-32 -20 -85 -56 -116 -81 l-58 -44 7
-354 6 -355 -26 7 c-23 6 -170 74 -495 229 -205 98 -275 125 -278 110 -2 -8 1
-67 7 -131 5 -64 17 -245 26 -402 10 -189 21 -302 31 -335 15 -46 22 -64 58
-150 8 -17 17 -46 21 -65 4 -19 13 -42 20 -50 7 -8 24 -49 37 -90 14 -41 28
-84 32 -95 7 -17 5 -16 -12 4 -11 13 -24 21 -31 17 -6 -4 -11 -2 -11 3 0 6 5
11 10 11 16 0 12 29 -9 69 -10 20 -26 53 -36 74 -9 20 -20 35 -25 32 -4 -3 -6
4 -3 16 3 12 1 24 -5 28 -6 3 -14 28 -19 53 -5 32 -12 45 -19 40 -9 -5 -9 -86
2 -322 7 -173 15 -392 16 -486 3 -147 5 -173 20 -188 17 -17 18 -16 18 7 0 20
7 26 37 33 53 11 58 11 56 -3 -2 -7 2 -13 7 -13 6 0 10 8 10 18 0 11 -8 18
-23 20 -13 1 -36 8 -51 16 -22 11 -24 15 -11 20 9 3 28 6 41 6 20 0 24 4 19
19 -3 11 0 21 7 24 8 3 14 -5 15 -20 0 -14 8 -32 17 -41 14 -14 16 -13 26 12
14 39 13 46 -11 46 -12 0 -17 4 -14 11 4 6 9 8 12 5 3 -3 12 2 20 10 9 8 22
13 29 10 18 -7 25 6 14 24 -8 12 -13 13 -30 2 -11 -7 -20 -8 -20 -3 0 5 -9 7
-20 4 -11 -3 -20 -12 -20 -20 0 -8 -5 -11 -12 -7 -7 5 -2 15 17 30 21 16 33
20 41 13 9 -7 13 -4 16 12 3 21 4 22 20 6 10 -11 19 -13 23 -7 3 5 1 10 -4 10
-6 0 -11 5 -11 11 0 6 -10 19 -22 30 -17 13 -19 18 -8 19 8 0 20 8 26 18 10
15 8 18 -6 19 -26 2 -59 33 -53 49 3 8 8 12 12 9 9 -5 5 98 -5 135 -18 65 38
-56 115 -250 42 -107 98 -242 130 -315 5 -11 16 -38 24 -60 9 -22 43 -107 77
-190 34 -82 77 -192 95 -243 19 -51 47 -119 62 -152 26 -58 28 -60 65 -60 32
0 38 3 38 21 0 11 5 17 10 14 6 -4 8 -11 5 -16 -4 -5 -2 -9 4 -9 14 0 17 15
13 66 -3 37 -6 43 -18 33 -12 -10 -14 8 -14 119 0 72 -3 137 -6 146 -4 11 0
16 12 16 13 0 15 3 7 8 -14 9 -24 211 -12 252 4 14 8 -25 9 -90 1 -81 4 -108
10 -92 6 13 8 43 5 68 -4 36 -2 45 9 41 11 -4 11 2 2 33 -7 23 -9 69 -6 112 3
40 2 75 -2 76 -5 2 -6 26 -2 53 4 32 3 49 -4 49 -6 0 -13 -19 -15 -43 -3 -40
-4 -40 -5 11 -2 39 1 52 12 52 9 0 16 12 18 28 2 18 8 26 18 24 11 -3 12 -1 3
8 -15 16 -33 4 -33 -21 0 -10 -4 -19 -10 -19 -17 0 -11 35 11 59 24 26 19 51
-11 51 -19 0 -20 6 -20 120 0 102 2 120 16 120 11 0 14 -6 8 -22 -15 -46 -13
-88 4 -98 15 -8 15 -9 -3 -10 -15 0 -17 -2 -6 -9 9 -6 10 -11 2 -15 -6 -4 -11
-12 -11 -17 0 -6 5 -7 10 -4 6 3 10 0 11 -7 0 -7 5 -2 10 12 6 14 8 44 5 68
-3 23 -2 42 2 42 4 0 8 61 8 135 1 76 -2 135 -8 135 -5 0 -4 9 2 19 13 25 13
78 0 86 -5 3 -10 14 -10 23 0 11 3 13 8 5 4 -6 7 26 8 70 0 45 4 91 8 102 l9
20 -17 -20 c-16 -20 -16 -19 -8 5 9 29 8 48 -3 73 -4 9 -4 25 1 35 10 22 11
192 2 192 -4 0 -6 22 -3 49 2 27 5 71 6 99 2 41 5 49 18 45 13 -4 13 -3 -1 6
-14 9 -16 23 -12 74 2 34 9 64 14 65 17 6 11 32 -7 32 -14 0 -12 4 7 22 13 12
19 23 13 25 -6 2 -9 13 -6 23 3 11 0 20 -6 20 -6 0 -11 4 -11 10 0 5 6 7 14 4
16 -6 29 33 12 40 -7 3 -7 5 2 5 6 1 12 8 12 16 0 8 5 15 10 15 6 0 10 28 11
63 1 87 15 119 21 47 2 -30 5 -404 7 -830 1 -426 4 -849 7 -940 2 -91 4 -353
4 -582 0 -405 1 -418 19 -418 37 0 48 10 43 39 -2 16 1 38 7 50 8 14 8 21 1
21 -5 0 -10 10 -9 23 0 12 -3 34 -7 50 -4 17 -2 27 5 27 6 0 11 11 11 25 0 15
-5 24 -12 22 -7 -1 -13 4 -12 11 1 6 2 24 3 40 1 21 3 24 11 12 8 -13 10 -12
10 3 0 10 -7 25 -15 34 -8 8 -12 20 -8 26 4 7 6 20 4 31 -1 11 2 16 8 12 11
-7 16 12 12 52 -1 13 3 38 8 55 7 20 8 60 3 106 -7 62 -6 70 5 55 12 -17 13
-17 13 3 0 12 -4 25 -10 28 -15 10 -12 35 5 35 8 0 15 5 15 11 0 6 -7 9 -15 5
-8 -3 -15 -1 -15 4 0 6 4 10 10 10 5 0 14 9 20 21 9 17 8 25 -7 42 -12 13 -13
18 -3 12 13 -8 13 -7 1 8 -14 18 -9 32 12 32 7 0 13 20 14 52 1 44 -1 51 -15
46 -11 -3 -13 -2 -6 4 17 13 25 93 9 93 -10 0 -9 13 6 57 16 45 18 58 7 64 -9
6 -5 9 12 10 14 0 19 3 13 6 -7 2 -13 11 -13 18 0 7 -6 16 -12 18 -9 4 -10 8
-2 14 11 9 12 98 1 109 -4 4 1 13 11 20 16 13 16 13 0 14 -21 0 -23 11 -6 28
9 9 9 15 1 23 -9 9 -6 16 10 30 19 16 20 18 5 19 -21 0 -23 11 -6 28 6 6 12
41 13 77 2 53 -1 65 -14 65 -10 0 -12 3 -5 8 21 14 35 107 22 155 -5 21 -2 32
13 45 23 20 24 35 4 52 -17 14 -21 45 -5 35 6 -3 10 1 10 9 0 9 -3 15 -7 14
-5 -2 -9 1 -10 6 -1 5 -6 12 -12 15 -6 4 -8 17 -4 29 3 12 10 19 15 16 5 -3 7
-12 4 -20 -3 -8 -1 -14 4 -14 23 0 11 85 -14 102 -7 5 -6 8 4 8 13 0 13 1 0
10 -13 8 -12 11 4 23 17 13 17 14 2 20 -10 4 -14 11 -11 17 4 6 9 8 13 6 4 -2
7 21 7 52 0 32 6 109 14 172 8 63 14 134 13 158 0 23 4 42 9 42 11 0 1 49 -14
68 -8 10 -7 16 4 23 11 7 11 11 2 17 -17 11 -12 284 5 290 7 2 12 24 13 50 0
26 4 56 8 67 l8 20 5 -20 c3 -11 6 -225 8 -475 1 -250 4 -458 6 -461 2 -3 4
-508 5 -1122 l1 -1117 34 0 c31 0 34 3 34 28 0 16 -3 32 -7 35 -14 15 -11 61
5 74 16 12 16 13 0 7 -10 -3 -18 -2 -18 4 0 6 5 12 11 14 8 3 6 10 -5 20 -20
21 -20 28 1 28 15 0 15 1 -2 13 -18 14 -13 43 6 32 5 -4 9 -1 9 4 0 6 -4 11
-9 11 -10 0 -19 40 -13 58 2 7 10 12 18 12 8 0 14 8 13 18 0 10 -3 12 -6 5 -8
-21 -23 -15 -23 8 0 14 5 19 14 16 9 -4 16 3 19 19 3 18 1 22 -8 14 -9 -7 -16
-5 -26 7 -8 9 -9 14 -2 10 6 -4 14 -3 18 3 4 6 11 8 16 4 6 -3 10 53 10 153 1
184 4 252 14 274 3 10 2 20 -4 24 -12 7 -15 44 -5 69 3 9 10 13 15 10 12 -7
-2 29 -15 38 -6 4 -5 12 3 22 11 13 11 16 0 16 -10 0 -10 3 -2 11 8 8 8 20 3
34 -11 28 -8 245 3 238 4 -2 7 0 7 6 0 5 -5 11 -10 13 -11 3 -12 20 -7 141 2
43 8 82 13 85 14 11 16 142 1 142 -9 0 -9 2 0 8 12 8 19 45 28 157 3 39 10 74
16 79 12 13 12 29 -1 21 -5 -3 -10 -2 -10 3 0 6 7 13 16 16 8 3 12 11 8 17 -4
8 -9 7 -15 -2 -6 -10 -9 -6 -9 14 0 15 5 27 11 27 5 0 7 -6 3 -12 -4 -7 -4
-10 1 -6 13 12 16 69 5 83 -8 9 -6 14 5 19 12 4 13 10 6 25 -12 21 7 133 21
125 9 -5 9 -2 11 75 1 27 5 52 9 56 4 4 4 13 2 20 -3 7 0 16 7 21 9 5 10 2 6
-9 -3 -10 -2 -17 3 -17 6 0 10 6 11 13 0 6 7 -10 14 -38 11 -38 14 -129 15
-372 0 -178 4 -323 9 -323 12 0 23 92 15 139 -8 48 5 119 52 286 18 66 33 129
34 140 1 109 11 207 23 235 15 34 15 31 17 -90 l1 -125 22 30 c12 17 46 56 75
87 40 42 53 63 49 78 -3 11 -1 23 4 26 6 4 6 11 0 18 -6 7 -9 15 -6 18 3 3 7
44 9 93 6 129 26 135 26 8 0 -56 -4 -104 -9 -107 -18 -11 1 -42 31 -54 l31
-12 -89 -92 c-105 -108 -139 -172 -179 -333 -24 -95 -26 -119 -22 -242 2 -76
6 -147 8 -158 4 -18 -3 -21 -63 -27 -74 -7 -88 -12 -88 -34 0 -8 10 -14 25
-14 l26 0 -1 -727 c0 -401 -1 -758 0 -795 0 -61 2 -68 19 -68 11 0 23 5 27 12
4 7 3 8 -4 4 -17 -10 -15 27 3 70 13 31 20 147 15 247 -2 45 -1 71 5 197 7
121 7 180 6 420 0 36 2 103 5 150 6 115 5 330 -2 352 -3 10 -2 18 3 18 7 0 47
-167 70 -290 9 -51 19 -60 71 -57 29 1 47 -3 49 -10 3 -9 -11 -12 -54 -11 -51
2 -59 6 -70 28 -11 24 -11 24 -11 -10 1 -19 5 -38 10 -41 12 -8 18 -209 18
-667 0 -392 1 -412 18 -412 16 0 19 9 19 58 1 31 2 57 3 57 7 0 7 166 0 192
-5 18 -5 35 -1 37 3 3 6 59 6 125 0 89 3 122 12 125 7 3 13 11 13 18 0 9 -3 8
-10 -2 -15 -23 -12 6 5 55 18 48 18 48 5 40 -6 -4 -7 2 -1 17 5 13 8 68 7 122
-1 53 2 100 6 102 5 3 6 10 3 15 -4 5 -1 9 4 9 6 0 11 21 11 50 0 44 2 50 21
50 18 0 20 4 15 25 -21 85 -60 579 -49 623 3 15 12 33 19 40 7 7 13 34 12 62
0 27 3 53 6 59 4 5 2 12 -3 16 -6 3 -8 11 -6 18 2 7 6 41 9 77 9 100 14 121
44 177 28 55 52 69 52 31 1 -23 20 -210 24 -238 11 -60 30 -111 41 -106 6 2
18 0 26 -5 11 -7 9 -9 -8 -9 -32 0 -105 -34 -130 -61 -51 -56 -67 -147 -38
-216 12 -27 18 -34 27 -25 8 8 8 15 -2 26 -8 11 -11 39 -8 86 3 59 8 74 30 97
15 16 41 33 57 40 26 9 29 9 24 -6 -3 -9 6 -1 21 18 14 19 26 30 26 23 0 -7 9
-12 20 -12 11 0 20 7 20 15 0 12 4 13 19 5 25 -13 34 -13 26 0 -3 6 -2 10 4
10 5 0 13 -4 16 -10 3 -5 23 -14 44 -20 41 -11 169 -91 213 -134 29 -28 48
-33 48 -13 0 8 3 7 9 -3 6 -8 8 -18 5 -22 -3 -4 1 -18 9 -30 11 -18 13 -45 7
-123 -3 -55 -4 -104 -1 -110 3 -5 6 -30 8 -55 1 -25 7 -46 13 -48 5 -2 10 -8
10 -13 0 -6 -4 -8 -9 -4 -5 3 -13 0 -17 -6 -3 -6 -2 -14 4 -18 7 -4 6 -22 -3
-56 -7 -28 -15 -56 -16 -64 -3 -10 8 -17 33 -21 20 -4 44 -13 53 -20 13 -10
23 -9 64 11 44 20 48 25 40 45 -11 31 -31 208 -30 262 1 23 -3 42 -8 42 -6 0
-8 -7 -5 -15 8 -20 -6 -19 -22 3 -13 15 -14 15 -11 -8 1 -18 -3 -25 -15 -24
-24 2 -25 -43 -1 -48 15 -3 15 -4 0 -19 -9 -9 -14 -18 -12 -20 2 -3 -1 -26 -7
-52 -8 -42 -12 -46 -22 -31 -8 11 -10 32 -6 60 4 24 3 41 -2 38 -8 -5 -11 102
-8 269 1 42 -3 77 -8 77 -5 0 -7 12 -4 27 4 23 6 24 12 9 5 -17 8 -16 23 8 10
14 13 26 8 26 -6 0 -10 31 -8 78 1 42 -2 83 -7 91 -9 14 -14 71 -20 236 -4 85
-11 132 -42 253 -13 50 -21 98 -18 106 8 21 50 36 100 36 72 0 84 -11 84 -78
0 -31 -5 -76 -10 -100 -11 -47 -1 -85 11 -42 l7 25 1 -27 c1 -16 -2 -28 -6
-28 -10 0 -10 1 -17 -245 -3 -112 -1 -224 4 -255 5 -30 11 -100 12 -155 2 -55
6 -103 11 -106 4 -3 12 -62 17 -132 5 -70 19 -164 31 -210 33 -129 33 -127 -9
-127 -21 -1 -50 -7 -67 -16 l-30 -14 35 7 c35 6 100 7 105 1 1 -2 6 -13 9 -25
6 -18 4 -22 -8 -17 -11 4 -16 1 -16 -10 0 -9 -5 -16 -11 -16 -5 0 -7 -4 -4
-10 3 -5 1 -10 -5 -10 -11 0 -70 -53 -70 -63 0 -6 100 -67 110 -67 5 0 15 9
23 20 8 11 17 17 20 13 4 -3 7 6 7 20 0 31 26 38 33 10 4 -14 5 -13 6 4 0 12
5 24 11 28 5 3 7 12 4 19 -3 8 -1 17 5 21 6 3 11 33 11 66 0 49 3 59 18 59 13
0 14 2 4 9 -11 7 -11 9 1 14 25 10 56 -3 50 -21 -4 -10 -2 -13 6 -8 6 4 18 2
26 -4 21 -18 20 13 -1 34 -8 9 -14 16 -12 17 43 10 49 8 43 -11 -4 -14 -2 -20
8 -20 12 0 14 10 11 40 -2 25 0 39 6 35 6 -3 10 -14 10 -24 0 -10 9 -30 20
-44 22 -27 26 -47 10 -47 -5 0 -10 -7 -10 -15 0 -8 -4 -15 -10 -15 -5 0 -10 5
-10 12 0 6 -2 9 -5 6 -9 -9 7 -38 21 -38 7 0 18 -9 24 -20 9 -16 8 -18 -5 -14
-8 4 -15 2 -15 -4 0 -6 5 -12 11 -14 12 -4 3 -48 -9 -47 -4 1 -16 -2 -28 -6
-18 -5 -20 -13 -17 -52 4 -36 0 -50 -18 -69 -20 -21 -20 -24 -5 -24 10 0 16
-6 13 -12 -2 -7 -10 -12 -16 -11 -6 2 -11 -3 -11 -10 0 -6 -5 -4 -11 6 -11 18
-29 23 -29 7 0 -5 10 -18 22 -30 l22 -20 -37 0 c-26 0 -37 -4 -37 -15 0 -8 -6
-15 -14 -15 -8 0 -17 -6 -20 -12 -5 -10 -7 -10 -12 0 -8 17 -24 15 -24 -3 0
-8 7 -15 15 -15 8 0 15 -4 15 -10 0 -5 -3 -10 -7 -9 -18 3 -52 -14 -47 -22 8
-13 -54 -11 -79 3 -72 39 -199 38 -282 -2 -53 -26 -112 -22 -129 7 -29 49 -49
172 -26 158 6 -3 10 -1 10 5 0 8 53 10 178 8 97 -1 209 2 247 8 l70 9 -85 18
c-111 22 -174 22 -272 -3 -44 -12 -84 -20 -90 -18 -12 4 60 56 127 92 27 14
43 26 34 26 -21 0 -34 17 -43 53 -6 26 -5 28 15 22 15 -5 20 -3 17 6 -8 23
-27 21 -52 -6 -24 -26 -25 -26 -57 -10 -24 13 -29 19 -18 26 11 7 11 9 -3 9
-9 0 -18 -4 -20 -10 -5 -15 -68 -25 -68 -10 0 7 8 10 20 7 15 -4 20 -1 18 11
-2 12 5 18 25 20 21 3 27 9 27 26 0 13 7 29 15 36 13 10 13 15 3 21 -9 6 -7
17 9 46 12 21 22 40 22 43 0 3 2 12 4 20 2 8 12 62 21 120 19 122 21 222 5
253 -21 40 -113 127 -146 138 -18 6 -33 15 -33 20 0 6 -5 7 -11 3 -8 -4 -9 0
-4 15 4 15 2 21 -8 21 -9 0 -18 6 -20 13 -4 9 -6 9 -6 0 -2 -21 -21 -14 -21 7
0 11 -7 20 -15 20 -8 0 -15 -7 -15 -15 0 -12 -11 -14 -55 -11 -30 3 -56 1 -58
-2 -2 -4 2 -18 9 -32 10 -19 14 -20 14 -7 0 9 7 17 16 17 11 0 14 -6 9 -21 -5
-15 -4 -19 4 -15 6 4 11 3 11 -2 0 -15 -28 -23 -32 -10 -3 7 -13 3 -26 -10
-12 -12 -27 -22 -33 -22 -6 0 -9 -7 -5 -15 3 -8 -2 -19 -12 -24 -9 -6 -13 -11
-9 -11 4 0 3 -9 -3 -20 -8 -15 -17 -19 -33 -15 -17 5 -19 4 -7 -4 13 -9 13
-11 -2 -11 -10 0 -20 -11 -24 -25 -10 -41 2 -40 41 4 21 22 62 55 92 72 49 28
59 31 111 25 73 -9 118 -23 164 -53 44 -27 48 -28 48 -8 0 8 4 15 9 15 17 0
31 -28 33 -66 2 -74 -23 -119 -94 -163 -99 -62 -213 -80 -292 -47 -47 19 -43
30 5 16 75 -22 136 -6 199 51 37 34 41 40 20 35 -85 -24 -248 -14 -289 18 -12
9 -13 8 -6 -3 6 -11 1 -12 -28 -7 -35 7 -36 6 -28 -16 5 -13 9 -74 10 -135 1
-130 23 -277 53 -348 35 -85 71 -155 80 -155 4 0 8 -7 8 -15 0 -8 11 -22 24
-31 16 -10 26 -27 28 -47 2 -23 8 -32 21 -31 9 1 17 -5 17 -13 0 -20 196 -214
235 -233 17 -8 32 -17 35 -21 12 -13 70 -30 81 -23 7 4 57 6 110 5 86 -2 104
1 152 23 30 14 61 33 69 44 7 10 63 65 125 121 99 92 117 114 156 190 24 47
42 92 40 99 -3 6 0 12 5 12 8 0 18 88 28 240 6 112 17 200 24 200 8 0 9 6 11
94 1 49 -2 71 -12 77 -11 7 -11 9 -1 9 7 0 12 6 10 13 -2 6 8 29 21 50 46 74
36 147 -31 222 -60 69 -145 94 -258 76 -44 -7 -70 -17 -82 -31 -9 -11 -24 -20
-35 -20 -16 0 -57 -19 -41 -20 4 0 -6 -15 -23 -32 -16 -18 -29 -36 -29 -40 0
-4 -13 -21 -29 -39 -30 -32 -55 -33 -43 0 12 33 101 128 135 145 17 9 52 28
76 41 50 28 130 37 198 23 27 -6 49 -6 61 1 29 15 55 80 53 126 -2 22 -2 47
-2 55 0 8 1 39 1 69 -1 43 2 51 12 39 40 -42 71 -143 73 -238 3 -94 14 -163
29 -172 7 -5 5 -8 -6 -8 -10 0 -18 -4 -18 -10 0 -5 5 -10 11 -10 5 0 7 -4 4
-10 -3 -5 -1 -10 4 -10 6 0 11 5 11 10 0 6 4 10 8 10 13 0 -7 -204 -34 -355
-14 -77 -28 -173 -31 -212 -5 -70 -5 -73 18 -82 13 -5 19 -10 12 -10 -6 -1
-10 -9 -8 -18 1 -10 -2 -26 -6 -35 -6 -10 -5 -19 1 -23 13 -8 13 -45 0 -45
-14 0 -12 -20 5 -54 18 -35 18 -36 0 -36 -19 0 -19 -27 0 -47 16 -16 11 -38
-7 -27 -5 4 -8 -1 -6 -10 1 -10 7 -16 13 -16 14 2 24 -33 14 -51 -6 -11 -4
-21 6 -29 9 -7 11 -19 6 -33 -4 -12 -6 -58 -5 -102 3 -115 4 -187 3 -209 0
-11 4 -22 10 -25 5 -4 12 -20 16 -36 5 -23 4 -26 -4 -15 -9 12 -11 11 -11 -7
0 -12 4 -24 10 -28 5 -3 8 -27 8 -53 -3 -64 11 -162 23 -162 5 0 9 102 10 248
0 136 2 274 4 307 2 33 4 167 4 298 l1 237 31 0 c20 0 29 4 26 13 -2 6 0 22 4
34 5 14 4 25 -2 29 -14 8 -34 -12 -34 -34 0 -10 -9 -18 -24 -20 -20 -3 -23 -1
-17 15 4 10 21 68 36 128 16 61 36 130 45 155 l15 45 -6 -55 c-8 -78 -5 -184
6 -188 6 -2 6 -10 0 -22 -7 -13 -6 -20 2 -22 7 -3 8 -9 3 -18 -8 -13 -18 -103
-16 -140 3 -64 8 -97 14 -107 4 -6 3 -14 -3 -18 -6 -4 -8 -11 -4 -16 3 -6 8
-43 10 -82 2 -40 4 -74 5 -77 1 -3 1 -9 0 -13 -8 -44 -7 -256 1 -278 6 -18 7
-34 1 -42 -5 -6 -8 -27 -7 -44 2 -18 4 -41 4 -50 1 -15 2 -173 2 -261 0 -37
33 -24 34 13 0 17 2 333 4 703 2 371 5 715 8 765 l4 92 38 -3 c32 -3 41 0 55
22 9 14 14 30 10 36 -10 16 -23 12 -21 -7 1 -13 -5 -17 -19 -15 -11 2 -46 6
-77 9 l-58 5 0 49 c0 47 -1 48 -32 51 -21 2 -38 -3 -45 -12 -10 -13 -12 -10
-13 17 0 31 1 32 38 26 20 -3 40 -11 44 -17 19 -27 3 208 -18 277 -6 19 -17
19 -76 1 -13 -4 -18 0 -18 15 0 15 6 21 23 21 12 0 28 4 36 9 20 13 -3 91 -46
156 -33 50 -41 71 -23 60 17 -11 11 4 -24 58 -42 63 -81 107 -96 107 -5 0 -10
4 -10 9 0 5 -29 27 -64 50 -35 22 -67 45 -71 51 -3 6 -10 8 -15 5 -4 -2 -54
17 -111 44 -165 77 -270 104 -398 103 -96 -1 -199 -25 -316 -71 -76 -31 -109
-37 -140 -25 -13 5 -10 10 14 25 17 10 31 23 31 28 0 4 12 11 28 14 15 3 43
16 62 29 19 13 70 32 114 43 43 11 81 25 83 32 8 20 23 15 23 -7 0 -14 -7 -20
-22 -20 -22 0 -21 -1 4 -14 33 -17 98 -10 98 10 0 8 -6 14 -14 14 -7 0 -16 9
-19 21 -4 16 -3 18 7 9 10 -7 17 -6 26 5 14 17 55 21 44 4 -10 -16 16 -29 47
-22 18 3 28 0 32 -11 4 -9 18 -16 32 -16 19 0 25 5 25 22 0 20 1 20 13 5 16
-23 225 -127 254 -127 13 0 22 -5 20 -11 -1 -6 25 -26 58 -43 33 -18 76 -41
95 -52 19 -10 70 -55 113 -99 103 -105 101 -103 128 -157 12 -26 26 -45 30
-42 6 4 38 -76 43 -109 1 -7 5 -17 8 -23 13 -20 42 -219 48 -329 5 -104 15
-123 23 -45 l3 35 8 -42 c9 -46 26 -59 26 -20 0 36 37 69 68 62 45 -9 141 -7
157 5 6 3 30 7 55 8 25 1 68 8 96 15 28 7 95 14 150 16 81 2 112 -2 164 -19
42 -14 66 -18 68 -11 2 6 12 11 23 11 10 0 24 9 31 20 9 13 19 18 34 14 16 -4
26 0 34 16 9 16 18 21 36 17 16 -3 25 1 29 12 7 23 45 45 57 33 7 -7 23 3 49
29 21 21 48 39 59 39 11 0 20 5 20 10 0 6 11 10 25 10 14 0 25 4 25 9 0 4 17
11 38 15 92 15 107 20 122 38 13 16 56 29 102 29 13 0 18 15 23 75 4 41 5 77
3 79 -2 3 -27 -4 -54 -14 -28 -11 -79 -25 -114 -32 -36 -7 -153 -34 -261 -61
-211 -52 -232 -55 -207 -35 13 10 17 53 22 277 9 392 18 602 26 593 4 -4 15
-34 24 -65 10 -32 22 -58 27 -58 5 0 9 -7 9 -16 0 -9 5 -12 13 -8 6 4 9 3 4
-1 -4 -5 0 -19 8 -32 9 -13 11 -23 6 -23 -6 0 -8 -19 -5 -42 4 -46 10 -109 12
-145 1 -12 11 -24 23 -28 l21 -7 -22 -12 c-20 -10 -26 -35 -7 -28 4 1 8 -10 8
-25 4 -76 3 -103 -4 -103 -5 0 -7 -8 -6 -17 1 -10 0 -20 -1 -23 -10 -29 -5
-72 12 -111 18 -38 27 -47 47 -47 14 0 34 4 44 9 9 6 17 6 17 1 0 -5 28 -4 63
3 l62 11 3 325 2 325 -97 41 c-54 23 -139 58 -188 77 l-90 36 -190 -65 c-105
-37 -194 -70 -199 -75 -5 -5 -11 -200 -13 -434 l-5 -425 34 11 c18 6 60 17 93
25 33 9 68 20 78 24 9 5 45 11 80 13 74 5 57 -3 -68 -33 -49 -12 -146 -37
-215 -56 -354 -97 -418 -114 -454 -120 l-38 -8 7 284 7 284 -75 60 -74 60 -2
90 c-1 50 -4 97 -7 105 -4 13 -87 72 -144 104 -15 8 -18 48 -23 360 -4 193 -7
434 -7 536 l0 186 -43 36 c-25 20 -59 38 -82 42 -73 13 -406 19 -418 7 -6 -6
-28 -11 -49 -11 -31 0 -41 -5 -48 -22 -9 -22 -9 -22 -9 3 -1 19 -8 28 -23 33
-35 9 -450 6 -473 -4z m-1036 -1125 c1 -70 -2 -86 -11 -77 -11 11 -23 169 -19
247 1 11 1 37 1 58 0 21 3 43 7 50 9 13 20 -132 22 -278z m1538 238 c-3 -10
-5 -2 -5 17 0 19 2 27 5 18 2 -10 2 -26 0 -35z m1 -215 c6 -17 10 -33 8 -36
-9 -8 -46 24 -41 35 2 7 -1 13 -8 13 -8 0 -6 4 3 10 22 14 25 13 38 -22z
m-138 -19 c0 -5 -4 -9 -10 -9 -5 0 -10 7 -10 16 0 8 5 12 10 9 6 -3 10 -10 10
-16z m-520 -96 c0 -28 -3 -34 -10 -23 -13 20 -13 60 0 60 6 0 10 -17 10 -37z
m1317 15 c-3 -8 -6 -5 -6 6 -1 11 2 17 5 13 3 -3 4 -12 1 -19z m-595 -243 c21
-4 43 -14 49 -22 11 -12 8 -13 -17 -7 -16 4 -71 8 -121 8 -51 1 -93 4 -93 7 0
9 81 26 115 23 17 -1 47 -5 67 -9z m1958 5 c0 -5 -4 -10 -10 -10 -5 0 -10 5
-10 10 0 6 5 10 10 10 6 0 10 -4 10 -10z m-2530 -35 c0 -12 -64 -35 -96 -35
l-37 0 38 33 c37 32 40 33 67 20 15 -8 28 -16 28 -18z m680 -27 c0 -6 -7 -5
-15 2 -8 7 -15 17 -15 22 0 6 7 5 15 -2 8 -7 15 -17 15 -22z m-75 -154 l-15
-39 6 35 c7 38 14 54 20 47 2 -2 -3 -21 -11 -43z m744 -6 c-1 -31 -1 -31 -8
-8 -5 14 -6 28 -4 33 9 15 13 6 12 -25z m-111 -54 c-4 -3 -12 5 -18 18 -12 22
-12 22 6 6 10 -10 15 -20 12 -24z m-2380 -165 c16 -1 16 -2 0 -6 -10 -2 -19
-14 -20 -26 -1 -12 -4 7 -7 43 -3 36 -4 85 -1 110 4 35 6 27 8 -37 2 -70 6
-83 20 -84z m1459 145 c-3 -3 -12 -4 -19 -1 -8 3 -5 6 6 6 11 1 17 -2 13 -5z
m43 -64 c0 -17 5 -30 12 -30 6 0 9 -2 6 -5 -3 -3 1 -34 7 -70 12 -64 7 -84
-17 -69 -8 5 -9 2 -5 -10 4 -10 7 -23 7 -29 0 -6 7 -2 16 9 15 18 15 18 11 -4
-3 -13 -2 -36 3 -52 6 -23 5 -30 -5 -30 -7 0 -16 -11 -19 -24 -11 -46 -51 -44
-78 5 -21 36 -24 59 -6 41 16 -16 25 -15 32 3 3 8 0 14 -7 12 -7 -1 -11 4 -9
11 1 6 3 27 5 46 1 19 4 33 7 31 3 -2 11 3 18 11 11 12 10 14 -3 14 -9 0 -14
4 -11 9 4 5 -6 14 -21 19 l-28 10 25 10 c14 6 19 11 11 11 -7 1 -11 7 -8 15 3
8 1 16 -5 18 -6 2 -4 10 6 20 9 9 16 31 16 48 0 28 2 30 20 20 13 -7 20 -21
20 -40z m305 29 c5 -15 10 -17 20 -9 19 16 50 -34 32 -52 -14 -14 -16 -56 -4
-75 5 -8 4 -13 -2 -13 -6 0 -11 -7 -11 -15 0 -8 -5 -15 -10 -15 -6 0 -8 -10
-4 -24 3 -14 0 -29 -9 -37 -7 -8 -12 -20 -9 -27 2 -7 -4 -19 -13 -26 -13 -9
-16 -20 -11 -40 3 -14 3 -26 -1 -25 -20 3 -32 -2 -37 -18 -6 -21 2 251 9 293
2 16 7 46 10 67 6 41 29 50 40 16z m-375 -35 c0 -8 -5 -12 -10 -9 -6 4 -8 11
-5 16 9 14 15 11 15 -7z m837 -56 c-3 -8 -6 -5 -6 6 -1 11 2 17 5 13 3 -3 4
-12 1 -19z m-1409 -128 c15 0 22 -5 19 -12 -2 -7 -12 -12 -22 -10 -10 2 -14
-1 -10 -7 3 -6 1 -11 -4 -11 -6 0 -11 7 -11 15 0 8 -6 15 -14 15 -8 0 -18 5
-22 12 -5 8 0 9 17 5 13 -4 35 -7 47 -7z m-881 -157 c-3 -10 -5 -2 -5 17 0 19
2 27 5 18 2 -10 2 -26 0 -35z m1839 -10 c-11 -11 -19 6 -11 24 8 17 8 17 12 0
3 -10 2 -21 -1 -24z m-1546 -83 c0 -5 -5 -10 -11 -10 -5 0 -7 5 -4 10 3 6 8
10 11 10 2 0 4 -4 4 -10z m650 -28 c0 -15 -2 -15 -10 -2 -13 20 -13 33 0 25 6
-3 10 -14 10 -23z m1353 -22 c15 -17 27 -41 27 -54 0 -14 5 -27 10 -29 6 -3 5
-4 -2 -3 -22 4 -37 -20 -40 -63 -3 -38 -18 -60 -18 -26 0 8 -4 15 -10 15 -5 0
-9 6 -7 13 1 6 -4 11 -10 10 -7 -2 -13 3 -13 11 0 8 -12 24 -26 37 -14 13 -29
34 -34 47 -7 16 -18 22 -42 22 -24 0 -29 3 -20 12 8 8 9 15 1 25 -9 10 -8 13
4 13 9 0 18 -8 20 -17 4 -15 5 -14 6 3 1 17 6 20 26 16 14 -2 25 0 25 6 0 20
75 -7 103 -38z m-2003 11 c0 -16 -12 -41 -20 -41 -4 0 -5 11 -2 25 4 23 22 36
22 16z m577 -14 c-6 -16 -65 -28 -73 -15 -3 4 6 8 19 8 14 0 30 7 37 15 15 18
25 13 17 -8z m-870 -19 c-3 -7 -5 -2 -5 12 0 14 2 19 5 13 2 -7 2 -19 0 -25z
m1620 0 c-3 -8 -6 -5 -6 6 -1 11 2 17 5 13 3 -3 4 -12 1 -19z m-352 -18 c3 -5
1 -10 -4 -10 -6 0 -11 5 -11 10 0 6 2 10 4 10 3 0 8 -4 11 -10z m884 -72 c83
-46 149 -139 122 -172 -11 -13 -99 -41 -164 -51 -21 -3 -35 -10 -32 -15 3 -5
-3 -13 -12 -19 -16 -10 -16 -11 6 -18 44 -12 -4 -20 -75 -12 -74 7 -169 51
-196 89 -21 31 -28 86 -10 83 6 -2 12 4 12 12 0 8 4 15 10 15 5 0 32 16 59 35
79 57 163 87 215 78 16 -3 46 -14 65 -25z m-2146 -33 c4 -8 2 -17 -3 -20 -6
-4 -10 3 -10 14 0 25 6 27 13 6z m7 -47 c0 -7 -5 -20 -10 -28 -8 -12 -10 -9
-10 13 0 15 5 27 10 27 6 0 10 -6 10 -12z m-770 -12 c0 -3 -4 -8 -10 -11 -5
-3 -10 -1 -10 4 0 6 5 11 10 11 6 0 10 -2 10 -4z m764 -77 c-6 -48 -14 -48
-14 0 0 23 4 40 9 37 5 -3 7 -20 5 -37z m-7 -91 c-3 -8 -6 -5 -6 6 -1 11 2 17
5 13 3 -3 4 -12 1 -19z m2243 -7 c0 -6 -4 -13 -10 -16 -5 -3 -10 1 -10 9 0 9
5 16 10 16 6 0 10 -4 10 -9z m-2230 -46 c0 -8 -4 -17 -10 -20 -6 -4 -10 5 -10
20 0 15 4 24 10 20 6 -3 10 -12 10 -20z m1299 -153 c6 -15 9 -49 7 -77 -1 -28
2 -53 8 -57 8 -5 7 -8 -1 -8 -7 0 -13 -5 -13 -11 0 -5 4 -8 9 -4 11 6 51 -42
51 -63 0 -12 -3 -12 -15 -2 -12 10 -15 10 -15 -4 0 -9 8 -16 18 -16 16 -1 16
-1 0 -11 -10 -5 -18 -16 -18 -23 0 -8 -6 -26 -14 -40 -11 -23 -11 -33 0 -67
14 -38 11 -65 -5 -55 -3 3 -7 -4 -7 -15 0 -10 4 -19 9 -19 5 0 4 -7 -3 -15
-11 -13 -10 -18 6 -29 10 -8 16 -17 12 -21 -8 -9 -48 13 -48 26 0 6 -11 25
-25 43 -14 18 -25 36 -25 40 0 4 -10 28 -21 54 -12 25 -21 58 -21 72 0 14 -4
30 -9 36 -10 12 9 71 29 92 7 8 10 18 7 23 -4 5 -2 9 3 9 6 0 8 9 5 20 -3 11
-8 20 -12 20 -7 0 -9 8 -14 73 -3 26 0 37 10 37 7 0 13 4 13 10 0 5 7 7 15 4
8 -4 15 -2 15 4 0 20 39 -1 49 -26z m861 4 c0 -3 -4 -8 -10 -11 -5 -3 -10 -1
-10 4 0 6 5 11 10 11 6 0 10 -2 10 -4z m-2799 -29 c-7 -7 -18 -7 -33 0 -20 9
-20 10 10 10 22 0 29 -4 23 -10z m2674 -7 c3 -5 1 -10 -4 -10 -6 0 -11 5 -11
10 0 6 2 10 4 10 3 0 8 -4 11 -10z m-2694 -84 c11 -12 12 -36 2 -36 -24 1 -33
18 -26 51 5 25 8 28 11 14 2 -11 8 -24 13 -29z m2609 34 c0 -5 -4 -10 -10 -10
-5 0 -10 5 -10 10 0 6 5 10 10 10 6 0 10 -4 10 -10z m-2540 -29 c0 -11 -26
-22 -34 -14 -12 12 -5 23 14 23 11 0 20 -4 20 -9z m2525 -29 c-1 -15 -3 -30
-4 -34 0 -5 -5 -8 -9 -8 -5 0 -8 17 -8 39 1 25 5 37 13 34 6 -3 10 -17 8 -31z
m-2648 3 c0 -8 -4 -12 -9 -9 -5 3 -6 10 -3 15 9 13 12 11 12 -6z m-41 -8 c4
-4 0 -7 -9 -7 -9 0 -18 4 -21 9 -7 10 20 9 30 -2z m774 -2 c0 -2 -7 -5 -15 -9
-9 -3 -15 0 -15 9 0 9 6 12 15 9 8 -4 15 -7 15 -9z m900 -30 c0 -8 -4 -15 -10
-15 -5 0 -10 7 -10 15 0 8 5 15 10 15 6 0 10 -7 10 -15z m-1570 -5 c0 -5 -4
-10 -10 -10 -5 0 -10 5 -10 10 0 6 5 10 10 10 6 0 10 -4 10 -10z m2560 -30 c0
-5 -2 -10 -4 -10 -3 0 -8 5 -11 10 -3 6 -1 10 4 10 6 0 11 -4 11 -10z m-2600
-10 c26 -16 3 -22 -27 -6 -23 13 -24 15 -8 15 11 1 27 -3 35 -9z m2114 -21
c-30 -12 -37 -10 -24 5 6 8 19 12 27 9 14 -6 14 -8 -3 -14z m123 -29 c2 -24 0
-28 -14 -23 -9 4 -14 2 -10 -3 3 -6 -3 -10 -13 -11 -13 -1 -17 3 -13 13 3 8 9
14 14 14 5 0 9 8 9 18 0 20 10 35 18 27 3 -3 7 -18 9 -35z m603 -30 c0 -5 -5
-10 -11 -10 -5 0 -7 5 -4 10 3 6 8 10 11 10 2 0 4 -4 4 -10z m-1905 -40 c3 -6
-1 -7 -9 -4 -18 7 -21 14 -7 14 6 0 13 -4 16 -10z m-245 -52 c0 -16 -3 -19
-11 -11 -6 6 -8 16 -5 22 11 17 16 13 16 -11z m2120 -18 c0 -5 -4 -10 -9 -10
-6 0 -13 5 -16 10 -3 6 1 10 9 10 9 0 16 -4 16 -10z m-2123 -62 c-2 -13 -4 -5
-4 17 -1 22 1 32 4 23 2 -10 2 -28 0 -40z m710 -540 c-3 -8 -6 -5 -6 6 -1 11
2 17 5 13 3 -3 4 -12 1 -19z"/>
<path d="M2442 2623 c5 -25 28 -28 28 -4 0 12 -6 21 -16 21 -9 0 -14 -7 -12
-17z"/>
<path d="M2862 2246 c-46 -21 -102 -66 -102 -82 0 -14 56 -47 122 -70 21 -7
38 -9 38 -4 0 6 -9 10 -20 10 -13 0 -25 12 -35 36 -20 48 -19 61 5 69 11 3 19
12 17 18 -1 8 22 12 78 12 71 0 85 -3 121 -28 60 -41 86 -104 39 -95 -17 4
-25 1 -25 -9 0 -10 6 -12 21 -8 12 4 29 8 38 10 49 7 4 83 -71 121 -64 32
-176 42 -226 20z"/>
<path d="M2967 2186 c-3 -8 -2 -18 3 -21 13 -8 24 15 12 27 -6 6 -11 4 -15 -6z"/>
<path d="M2878 2063 c7 -3 16 -2 19 1 4 3 -2 6 -13 5 -11 0 -14 -3 -6 -6z"/>
<path d="M2211 1684 c0 -11 3 -14 6 -6 3 7 2 16 -1 19 -3 4 -6 -2 -5 -13z"/>
<path d="M1690 4274 c0 -29 11 -31 27 -5 10 16 9 20 -8 24 -15 4 -19 0 -19
-19z"/>
<path d="M877 4210 c-4 -35 -7 -108 -6 -164 l1 -101 16 62 c20 72 28 83 37 52
7 -22 8 -21 25 11 l18 34 36 -69 c40 -76 40 -69 3 78 -12 48 -24 87 -28 87 -3
0 -11 -11 -17 -25 -6 -14 -15 -25 -20 -25 -5 0 -20 28 -34 61 l-25 62 -6 -63z"/>
<path d="M1010 4251 c8 -16 17 -19 43 -14 l33 5 27 -134 26 -133 -5 90 c-2 50
-7 109 -10 131 -5 46 3 52 76 55 40 2 -79 16 -153 18 -44 1 -47 0 -37 -18z"/>
<path d="M1427 4203 c-4 -38 -6 -88 -6 -113 l1 -45 10 43 c5 23 13 42 18 42
19 0 50 45 50 71 0 25 -38 69 -60 69 -4 0 -10 -30 -13 -67z m34 -36 c-13 -13
-15 11 -4 40 7 16 8 15 11 -6 2 -13 -1 -28 -7 -34z"/>
<path d="M1621 4175 c-7 -52 -10 -98 -7 -103 2 -4 18 -9 35 -10 22 -2 33 3 41
18 12 23 4 25 -34 10 -31 -11 -31 -14 -6 80 14 54 16 78 8 87 -6 7 -14 13 -17
13 -4 0 -13 -43 -20 -95z"/>
<path d="M1763 4238 c-21 -13 -36 -33 -47 -63 l-15 -45 34 0 34 0 -66 -107
c-73 -121 -68 -119 36 15 39 51 69 97 66 101 -3 5 -19 12 -35 16 -17 4 -30 12
-30 20 0 16 25 37 33 29 4 -4 11 6 17 21 6 15 9 29 8 30 -2 1 -17 -7 -35 -17z"/>
<path d="M1294 4240 c-55 -22 -70 -95 -29 -135 49 -50 130 -24 141 46 10 61
-56 113 -112 89z m75 -52 c13 -23 13 -29 -2 -52 -31 -46 -107 -27 -107 27 1
65 77 82 109 25z"/>
<path d="M1147 4223 c-4 -9 11 -222 17 -238 3 -5 5 19 5 54 l1 65 35 -34 c39
-38 41 -37 21 10 -7 18 -11 51 -9 74 5 44 -3 58 -44 70 -12 4 -23 3 -26 -1z
m46 -68 c-7 -21 -13 -19 -13 6 0 11 4 18 10 14 5 -3 7 -12 3 -20z"/>
<path d="M1046 4208 c-28 -10 -28 -11 -21 -67 9 -70 10 -71 46 -71 19 0 29 5
29 15 0 11 -7 14 -25 9 -21 -5 -25 -3 -25 15 0 12 5 21 10 21 6 0 10 7 10 15
0 8 -4 15 -10 15 -5 0 -10 7 -10 15 0 8 7 15 15 15 8 0 15 7 15 15 0 8 -1 15
-2 14 -2 0 -16 -5 -32 -11z"/>
<path d="M1675 4198 c-14 -43 -22 -88 -16 -88 4 0 13 17 20 38 8 20 16 43 18
50 3 6 0 12 -6 12 -7 0 -13 -6 -16 -12z"/>
<path d="M1494 4136 c-13 -22 -14 -29 -2 -53 11 -24 19 -28 53 -28 34 0 41 4
49 27 7 18 6 35 -2 53 -16 35 -74 36 -98 1z m80 -2 c9 -8 16 -19 16 -24 0 -13
-30 -40 -44 -40 -34 0 -48 52 -18 69 23 14 28 14 46 -5z"/>
<path d="M4003 3976 c-6 -8 -9 -16 -6 -20 3 -3 -8 -18 -26 -33 -17 -15 -31
-33 -31 -40 0 -7 -4 -13 -8 -13 -5 0 -33 -23 -63 -51 l-54 -50 40 3 c32 2 44
9 63 38 12 19 52 68 88 108 63 70 64 72 37 72 -15 -1 -33 -7 -40 -14z"/>
<path d="M3377 3790 c-3 -11 -2 -20 3 -20 12 0 21 28 11 35 -5 2 -11 -4 -14
-15z"/>
<path d="M2287 3352 c-48 -24 -86 -46 -84 -48 5 -6 161 58 165 67 2 5 10 5 18
2 8 -3 14 1 14 11 0 23 -14 19 -113 -32z"/>
<path d="M2668 3383 c7 -3 16 -2 19 1 4 3 -2 6 -13 5 -11 0 -14 -3 -6 -6z"/>
<path d="M2700 3381 c0 -9 34 -21 60 -21 8 0 2 7 -14 15 -32 17 -46 19 -46 6z"/>
<path d="M5018 2978 c-7 -13 -12 -27 -13 -31 0 -4 -7 -12 -15 -17 -11 -8 -5
-10 23 -8 36 2 37 3 37 40 0 43 -13 49 -32 16z"/>
<path d="M4570 2849 c0 -11 5 -17 10 -14 6 3 10 13 10 21 0 8 -4 14 -10 14 -5
0 -10 -9 -10 -21z"/>
<path d="M4965 2680 c-116 -18 -265 -106 -336 -201 -45 -59 -47 -144 -4 -155
21 -5 22 -10 19 -75 -2 -38 -8 -78 -13 -87 -6 -11 -6 -24 1 -36 7 -13 7 -25
-2 -42 -10 -18 -10 -27 -1 -38 6 -8 8 -16 3 -18 -14 -5 -23 -78 -9 -78 8 0 8
-3 -1 -9 -10 -6 -11 -17 -4 -47 6 -21 9 -68 8 -104 -2 -36 2 -68 8 -72 6 -4 6
-12 -3 -21 -8 -10 -8 -16 -1 -19 10 -3 14 -104 6 -195 -2 -29 -2 -53 1 -53 2
0 14 21 25 48 21 45 22 65 26 487 l4 440 25 47 c15 26 38 55 52 64 26 17 26
17 9 -3 -10 -11 -18 -23 -18 -27 0 -4 -11 -24 -25 -44 -28 -41 -32 -77 -10
-86 8 -3 15 -12 15 -20 0 -10 -6 -13 -16 -9 -12 4 -14 0 -10 -18 3 -13 10 -58
15 -100 6 -41 13 -83 17 -92 3 -9 2 -17 -3 -17 -5 0 -9 -33 -8 -74 0 -42 4
-72 9 -68 5 3 6 -1 1 -8 -13 -22 -15 -154 -2 -162 8 -6 9 -10 2 -15 -13 -9
-17 -93 -5 -93 4 0 11 11 14 24 3 13 13 27 22 30 13 5 14 1 8 -27 -4 -17 -9
-43 -10 -57 -1 -14 -3 -27 -4 -30 -1 -3 -1 -19 0 -36 1 -18 -3 -35 -9 -38 -6
-4 -6 -18 -1 -36 5 -18 5 -30 -1 -30 -12 0 -12 -37 1 -45 5 -3 7 -11 5 -18 -9
-23 -11 -217 -3 -217 4 0 8 -5 8 -11 0 -5 -5 -7 -12 -3 -8 5 -9 0 -5 -17 4
-13 7 -33 8 -44 l0 -20 9 20 c9 21 5 -127 -6 -199 -5 -28 -3 -37 6 -31 14 9 3
-103 -12 -122 -7 -9 -7 -13 1 -13 7 0 9 -20 7 -60 -4 -54 -2 -60 15 -60 10 0
19 6 20 13 1 14 6 979 8 1534 l1 373 23 14 c12 7 33 16 47 19 24 6 26 4 28
-36 1 -23 4 -68 6 -99 4 -55 4 -57 -19 -55 -13 1 -23 -2 -22 -8 1 -5 7 -9 14
-9 9 1 9 -3 0 -19 -9 -15 -9 -21 1 -24 14 -6 17 -83 2 -83 -5 0 -10 -5 -10
-11 0 -5 5 -7 10 -4 6 3 10 2 10 -4 0 -5 -4 -13 -10 -16 -13 -8 -13 -45 1 -45
6 0 8 -9 3 -22 -7 -25 -15 -108 -9 -108 2 0 13 21 26 48 12 26 26 49 30 52 4
3 14 22 22 43 24 56 36 45 21 -20 -7 -31 -11 -60 -8 -65 3 -5 1 -14 -4 -21
-14 -19 -21 -56 -11 -63 5 -3 7 -10 4 -15 -4 -5 1 -9 9 -9 23 0 8 -29 -19 -36
-13 -3 -24 -13 -24 -22 0 -10 -3 -32 -7 -51 -5 -23 -2 -36 7 -42 10 -6 8 -9
-8 -9 -14 0 -23 -6 -23 -15 0 -8 6 -12 14 -9 18 7 31 -62 17 -97 -5 -15 -6
-31 0 -40 5 -8 9 -26 9 -41 0 -19 5 -28 16 -28 9 0 12 -5 8 -12 -10 -15 -5
-108 6 -128 10 -18 22 38 19 90 -3 42 9 414 16 520 3 41 10 176 15 300 6 124
13 244 16 268 4 31 2 42 -8 41 -7 -1 -35 -5 -63 -9z m5 -760 c0 -5 -5 -10 -11
-10 -5 0 -7 5 -4 10 3 6 8 10 11 10 2 0 4 -4 4 -10z m-15 -30 c3 -5 1 -10 -4
-10 -6 0 -11 5 -11 10 0 6 2 10 4 10 3 0 8 -4 11 -10z"/>
<path d="M4518 2454 c-5 -4 -8 -19 -8 -33 0 -18 3 -22 11 -14 6 6 9 21 7 33
-1 12 -6 18 -10 14z"/>
<path d="M4025 2434 c-73 -19 -200 -95 -233 -140 -16 -24 -19 -41 -16 -94 6
-98 13 -123 30 -109 11 9 14 8 14 -5 0 -11 5 -14 12 -10 8 5 9 0 4 -17 -9 -26
-10 -41 -21 -244 -10 -190 -13 -553 -4 -567 4 -7 3 -18 -3 -26 -14 -16 -23
-96 -10 -88 5 3 6 -14 2 -39 -4 -25 -4 -45 -1 -45 4 0 8 -11 9 -25 1 -14 -2
-25 -6 -25 -5 0 -9 -81 -9 -180 l1 -180 28 0 c27 0 28 2 28 48 l1 47 25 -28
c15 -18 31 -27 40 -23 11 4 18 -1 21 -14 3 -11 10 -20 16 -20 6 0 7 3 4 7 -9
8 44 44 55 37 4 -3 8 2 8 10 0 18 -21 25 -102 34 l-63 7 -2 425 c-2 234 0 436
3 449 5 22 6 23 21 8 9 -9 16 -30 16 -47 0 -16 4 -30 9 -30 4 0 8 6 8 14 0 7
10 21 23 30 12 9 16 14 10 11 -7 -3 -13 -1 -13 4 0 6 -18 22 -40 36 l-40 25 0
274 1 274 35 46 c35 46 107 96 138 96 16 0 17 -48 10 -860 l-7 -860 142 0 141
0 1 245 c1 135 2 262 3 283 2 30 8 1158 6 1199 0 6 -26 24 -57 38 -44 20 -78
28 -138 30 -44 2 -89 2 -100 -1z m245 -64 c8 -5 11 -12 7 -16 -4 -4 -15 0 -24
9 -18 18 -8 23 17 7z m-150 -9 c-25 -14 -70 -22 -70 -13 0 16 13 22 49 22 25
-1 31 -3 21 -9z"/>
<path d="M4511 2344 c0 -11 3 -14 6 -6 3 7 2 16 -1 19 -3 4 -6 -2 -5 -13z"/>
<path d="M4540 2312 c-9 -11 -14 -35 -13 -75 1 -33 -1 -65 -5 -71 -8 -13 -11
-41 -16 -156 -2 -47 -6 -105 -9 -130 -13 -96 -18 -298 -7 -305 7 -4 7 -12 -1
-26 -5 -11 -7 -30 -3 -42 5 -12 7 -25 7 -28 -3 -11 -3 -105 0 -169 2 -36 0
-87 -5 -115 -5 -31 -5 -51 1 -53 6 -2 8 -9 5 -17 -3 -7 -1 -16 4 -19 15 -9 54
98 61 171 9 79 10 938 2 1004 -5 42 -8 45 -21 31z"/>
<path d="M2095 2232 c-45 -22 -117 -90 -112 -106 7 -22 84 -49 147 -52 72 -4
71 1 -3 11 -28 4 -58 16 -74 29 -25 21 -26 26 -15 50 18 39 112 79 172 74 55
-6 111 -31 128 -58 19 -32 -4 -57 -73 -79 -45 -14 -53 -19 -32 -20 39 -1 177
69 177 91 0 4 -30 22 -67 40 -85 42 -185 50 -248 20z"/>
<path d="M2170 2170 c0 -5 7 -10 16 -10 8 0 12 5 9 10 -3 6 -10 10 -16 10 -5
0 -9 -4 -9 -10z"/>
<path d="M3737 2074 c-3 -58 -10 -111 -15 -117 -5 -7 -9 -29 -8 -49 1 -21 -1
-38 -5 -38 -7 0 -10 -7 -32 -87 -9 -32 -11 -55 -6 -59 9 -5 4 -130 -6 -161 -2
-6 1 -14 8 -16 9 -3 9 -8 0 -17 -7 -8 -8 -22 -3 -41 5 -17 5 -31 -1 -34 -5 -4
-9 -11 -9 -16 0 -6 4 -8 10 -4 5 3 9 -12 8 -37 0 -24 1 -69 2 -102 2 -37 -2
-61 -9 -66 -13 -7 -9 -133 5 -192 4 -18 2 -28 -5 -28 -7 0 -9 -21 -5 -67 4
-38 6 -72 6 -78 -1 -5 -2 -44 -3 -85 -1 -41 -6 -81 -12 -87 -6 -9 -6 -13 2
-13 6 0 11 -9 11 -20 0 -17 7 -20 40 -20 l40 0 0 770 c0 424 -2 770 -3 770 -2
0 -7 -48 -10 -106z m-17 -270 c0 -8 -5 -12 -10 -9 -6 4 -8 11 -5 16 9 14 15
11 15 -7z m-13 -46 c-3 -8 -6 -5 -6 6 -1 11 2 17 5 13 3 -3 4 -12 1 -19z"/>
<path d="M2651 2104 c0 -11 3 -14 6 -6 3 7 2 16 -1 19 -3 4 -6 -2 -5 -13z"/>
<path d="M3884 1968 c9 -12 16 -32 16 -44 0 -12 7 -27 15 -34 13 -11 14 -10 9
5 -5 13 -4 16 4 11 7 -4 12 -14 12 -23 0 -9 6 -13 15 -9 12 4 14 0 9 -18 -6
-25 10 -66 26 -66 6 0 30 82 30 105 0 5 -138 95 -146 95 -3 0 2 -10 10 -22z"/>
<path d="M4890 1894 c0 -8 5 -12 10 -9 6 3 10 10 10 16 0 5 -4 9 -10 9 -5 0
-10 -7 -10 -16z"/>
<path d="M330 1824 c0 -8 5 -12 10 -9 6 4 8 11 5 16 -9 14 -15 11 -15 -7z"/>
<path d="M4875 1830 c-3 -5 -1 -10 4 -10 6 0 11 5 11 10 0 6 -2 10 -4 10 -3 0
-8 -4 -11 -10z"/>
<path d="M980 1704 c0 -8 5 -12 10 -9 6 3 10 10 10 16 0 5 -4 9 -10 9 -5 0
-10 -7 -10 -16z"/>
<path d="M2485 1680 c3 -5 18 -10 32 -10 32 0 28 5 -10 14 -19 4 -26 3 -22 -4z"/>
<path d="M2605 1608 l-7 -43 -10 29 c-14 39 -28 16 -28 -47 0 -56 22 -74 50
-39 13 16 17 36 14 78 -3 70 -9 77 -19 22z"/>
<path d="M2715 1639 c-4 -6 -5 -12 -2 -15 2 -3 7 2 10 11 7 17 1 20 -8 4z"/>
<path d="M3010 1630 c0 -5 5 -10 11 -10 5 0 7 5 4 10 -3 6 -8 10 -11 10 -2 0
-4 -4 -4 -10z"/>
<path d="M3960 1593 c0 -5 14 -16 30 -25 36 -20 40 -7 5 16 -27 18 -35 20 -35
9z"/>
<path d="M3030 1561 c-6 -13 -6 -22 -1 -26 9 -5 31 24 31 39 0 14 -20 4 -30
-13z"/>
<path d="M3960 1540 c0 -5 5 -10 10 -10 6 0 10 5 10 10 0 6 -4 10 -10 10 -5 0
-10 -4 -10 -10z"/>
<path d="M3209 1483 c-33 -93 -54 -136 -75 -156 -13 -12 -24 -27 -24 -33 0
-11 -228 -240 -287 -288 -119 -99 -312 -91 -477 19 -31 20 -113 96 -182 168
-70 73 -124 122 -120 110 8 -26 7 -27 -28 -13 -17 6 -29 22 -37 50 -7 23 -21
46 -31 51 -17 9 -18 -6 -18 -371 l0 -381 46 3 c43 3 47 5 52 33 2 17 4 44 4
60 0 17 5 33 11 37 7 4 2 11 -13 17 -14 5 -19 10 -12 10 7 1 12 16 12 39 0 21
5 43 12 50 8 8 8 15 0 25 -14 16 -6 28 14 20 8 -3 14 1 14 11 0 9 -6 16 -14
16 -24 0 -29 20 -7 28 11 4 20 10 20 15 1 4 1 8 2 10 9 30 7 52 -6 59 -21 13
-19 34 4 34 16 0 21 -10 27 -61 17 -141 -1 -297 -42 -377 l-15 -28 90 0 90 0
-5 58 c-3 31 -11 86 -19 122 -27 128 -57 309 -53 327 4 22 46 -62 79 -162 13
-38 31 -82 41 -97 10 -14 18 -29 18 -32 0 -3 22 -53 50 -111 l50 -105 104 0
c58 0 107 4 111 9 3 6 -4 19 -16 30 -13 12 -22 34 -24 57 -1 21 -7 40 -14 42
-6 2 -11 8 -11 13 0 6 3 8 8 6 4 -3 30 -7 57 -10 61 -7 85 -15 86 -31 1 -6 2
-18 3 -26 1 -8 -5 -23 -13 -33 -17 -21 -12 -27 23 -30 15 -1 30 -7 34 -14 4
-7 33 -11 76 -10 l69 2 38 120 c20 66 47 154 59 195 12 41 28 80 36 86 7 6 16
36 20 67 6 54 33 114 34 76 0 -27 -40 -340 -55 -428 -23 -128 -26 -121 54
-121 l69 0 -16 43 c-25 68 -20 517 6 517 4 0 6 -48 4 -106 -2 -66 1 -110 7
-118 6 -8 9 -21 5 -30 -4 -9 -1 -16 6 -16 9 0 7 -7 -5 -20 -16 -18 -16 -20 -2
-20 22 0 22 -16 0 -29 -11 -7 -13 -11 -5 -11 9 0 11 -7 7 -21 -5 -14 -3 -19 3
-15 16 9 25 -11 27 -59 1 -32 -2 -42 -12 -38 -16 6 -17 -19 -1 -35 9 -9 9 -12
0 -12 -7 0 -12 -7 -12 -15 0 -11 11 -15 40 -15 l40 0 0 193 c0 105 2 301 4
435 1 133 1 242 -1 242 -2 0 -8 -12 -14 -27z m-69 -213 c0 -5 -5 -10 -11 -10
-5 0 -7 5 -4 10 3 6 8 10 11 10 2 0 4 -4 4 -10z m27 -372 c-3 -8 -6 -5 -6 6
-1 11 2 17 5 13 3 -3 4 -12 1 -19z m-1152 -247 c-10 -10 -34 10 -29 24 6 14 8
13 19 -2 8 -10 12 -20 10 -22z"/>
<path d="M350 1490 c0 -5 9 -10 19 -10 11 0 23 5 26 10 4 6 -5 10 -19 10 -14
0 -26 -4 -26 -10z"/>
<path d="M430 1490 c0 -5 5 -10 10 -10 6 0 10 5 10 10 0 6 -4 10 -10 10 -5 0
-10 -4 -10 -10z"/>
<path d="M331 1424 c0 -11 3 -14 6 -6 3 7 2 16 -1 19 -3 4 -6 -2 -5 -13z"/>
<path d="M370 1388 c0 -9 5 -20 10 -23 13 -8 13 5 0 25 -8 13 -10 13 -10 -2z"/>
<path d="M491 1384 c0 -11 3 -14 6 -6 3 7 2 16 -1 19 -3 4 -6 -2 -5 -13z"/>
<path d="M196 1381 c-4 -7 -5 -15 -2 -18 9 -9 19 4 14 18 -4 11 -6 11 -12 0z"/>
<path d="M220 1381 c0 -13 28 -33 33 -23 3 4 -3 13 -14 20 -10 7 -19 8 -19 3z"/>
<path d="M304 1355 c-10 -8 -14 -15 -7 -15 6 0 15 -9 18 -21 7 -20 7 -20 26 2
21 24 27 51 7 31 -7 -7 -18 -12 -26 -12 -12 0 -12 3 -2 15 16 19 9 19 -16 0z"/>
<path d="M2483 1353 c25 -26 187 -30 187 -5 0 4 -22 6 -48 4 -26 -2 -72 1
-101 6 -46 8 -51 8 -38 -5z"/>
<path d="M140 1328 c0 -12 3 -18 6 -15 4 3 14 2 24 -3 23 -12 32 -2 17 21 -16
26 -47 25 -47 -3z"/>
<path d="M470 1321 c0 -39 34 -37 38 2 3 22 -1 27 -17 27 -16 0 -21 -6 -21
-29z"/>
<path d="M377 1333 c-11 -10 -8 -43 3 -43 6 0 10 11 10 25 0 26 -2 29 -13 18z"/>
<path d="M412 1328 c-15 -15 -16 -28 -2 -28 6 0 10 6 10 14 0 8 6 17 13 19 6
3 7 6 2 6 -6 1 -16 -4 -23 -11z"/>
<path d="M520 1331 c0 -5 6 -11 13 -14 9 -3 9 -7 -1 -19 -7 -10 -9 -19 -4 -22
12 -7 23 30 15 50 -6 16 -23 19 -23 5z"/>
<path d="M153 1283 c-7 -2 -13 -15 -13 -29 0 -16 4 -22 14 -18 7 3 14 16 14
30 0 13 -1 24 -2 23 0 0 -7 -3 -13 -6z"/>
<path d="M268 1273 c7 -3 16 -2 19 1 4 3 -2 6 -13 5 -11 0 -14 -3 -6 -6z"/>
<path d="M4656 1261 c-14 -21 -10 -553 4 -600 8 -26 9 -19 14 259 3 169 -7
358 -18 341z"/>
<path d="M200 1249 c0 -5 5 -7 10 -4 6 3 10 8 10 11 0 2 -4 4 -10 4 -5 0 -10
-5 -10 -11z"/>
<path d="M3885 1216 c18 -27 48 -41 65 -31 6 3 17 -1 26 -10 13 -13 19 -13 31
-3 13 11 9 16 -33 34 -27 11 -62 24 -77 28 -28 7 -28 6 -12 -18z"/>
<path d="M4940 1210 c0 -5 10 -10 23 -10 18 0 19 2 7 10 -19 13 -30 13 -30 0z"/>
<path d="M175 1180 c-3 -5 3 -10 15 -10 12 0 18 5 15 10 -3 6 -10 10 -15 10
-5 0 -12 -4 -15 -10z"/>
<path d="M140 1130 c0 -5 5 -10 11 -10 5 0 7 5 4 10 -3 6 -8 10 -11 10 -2 0
-4 -4 -4 -10z"/>
<path d="M4485 1070 c-3 -5 -1 -10 4 -10 6 0 11 5 11 10 0 6 -2 10 -4 10 -3 0
-8 -4 -11 -10z"/>
<path d="M4520 1040 c0 -5 7 -10 16 -10 8 0 12 5 9 10 -3 6 -10 10 -16 10 -5
0 -9 -4 -9 -10z"/>
<path d="M3008 1034 c-5 -4 -8 -16 -8 -28 0 -14 3 -17 11 -9 6 6 9 19 7 28 -1
9 -6 13 -10 9z"/>
<path d="M140 979 c0 -5 5 -7 10 -4 6 3 10 8 10 11 0 2 -4 4 -10 4 -5 0 -10
-5 -10 -11z"/>
<path d="M4531 964 c0 -11 3 -14 6 -6 3 7 2 16 -1 19 -3 4 -6 -2 -5 -13z"/>
<path d="M2967 880 c-3 -8 -8 -26 -11 -40 -3 -14 -13 -47 -21 -74 -13 -42 -13
-47 0 -42 9 3 15 -1 15 -10 0 -10 -6 -14 -14 -11 -8 3 -16 -2 -19 -11 -3 -9
-8 -25 -12 -34 -6 -14 -2 -18 18 -18 23 0 26 5 32 48 3 26 11 77 17 113 10 64
7 113 -5 79z"/>
<path d="M931 830 l1 -45 11 33 c7 24 7 36 -1 44 -9 9 -12 1 -11 -32z"/>
<path d="M4515 842 c-4 -10 1 -22 11 -29 27 -20 35 -16 31 14 -4 30 -32 40
-42 15z"/>
<path d="M2254 775 c16 -123 19 -135 32 -135 18 0 17 29 -1 104 -19 79 -40
100 -31 31z"/>
<path d="M950 781 c0 -5 5 -13 10 -16 6 -3 10 -2 10 4 0 5 -4 13 -10 16 -5 3
-10 2 -10 -4z"/>
<path d="M3137 764 c-4 -4 -7 -14 -7 -23 0 -11 3 -12 11 -4 6 6 10 16 7 23 -2
6 -7 8 -11 4z"/>
<path d="M174 729 c-3 -6 -4 -12 -2 -14 6 -6 48 6 48 14 0 11 -39 11 -46 0z"/>
<path d="M4520 715 c-16 -19 -3 -48 24 -53 20 -4 22 26 3 52 -12 17 -14 17
-27 1z"/>
</g>
</svg>
